<svg version="1.1" id="Layer_1" xmlns="http://www.w3.org/2000/svg" xmlns:xlink="http://www.w3.org/1999/xlink" x="0px" y="0px"
	 width="100%" viewBox="0 0 1024 1024" enable-background="new 0 0 1024 1024" xml:space="preserve">
<path fill="#000000" opacity="1.000000" stroke="none" 
	d="
M736.372437,535.257202 
	C733.945862,562.343750 726.986389,587.798523 714.895447,611.571045 
	C680.375854,679.442139 625.724915,721.729309 550.528076,734.074219 
	C470.377136,747.232300 401.876312,722.177673 346.460449,663.067078 
	C317.415131,632.085266 299.888062,594.701599 292.680969,552.843262 
	C280.508850,482.148346 297.400513,418.997772 344.523651,364.820099 
	C376.913513,327.581268 418.066162,304.464233 466.530151,294.595001 
	C489.332428,289.951569 512.420288,288.043549 535.481445,290.864594 
	C622.339783,301.489838 684.842224,345.922424 720.543579,426.432648 
	C734.996704,459.025909 738.945007,493.543274 737.233398,528.872620 
	C737.137329,530.856567 736.677063,532.822876 736.372437,535.257202 
M684.395020,646.914062 
	C720.451355,599.576172 735.148438,546.307556 728.809509,487.173889 
	C725.214111,453.633972 714.367004,422.554657 695.586304,394.637573 
	C654.916809,334.183105 597.309021,302.651825 525.110107,297.537476 
	C502.119781,295.908936 479.251495,298.503448 456.892548,304.431610 
	C405.821686,317.972443 364.654510,346.009583 334.420563,389.425232 
	C304.315674,432.655548 292.601562,480.827057 297.219574,533.171753 
	C298.775757,550.810486 302.369843,568.034302 308.243896,584.656616 
	C321.870483,623.216980 344.196320,655.855896 376.373352,681.380981 
	C427.099579,721.620667 484.823547,737.218811 548.591125,727.207214 
	C603.830688,718.534607 648.810669,690.994812 684.395020,646.914062 
z"/>
<path fill="#000000" opacity="1.000000" stroke="none" 
	d="
M712.329102,480.979980 
	C720.014893,539.048096 707.825989,591.771301 671.604919,637.680725 
	C639.973938,677.772461 598.597046,702.708313 547.996704,711.333008 
	C495.854095,720.220520 447.260101,710.239868 403.118164,681.242981 
	C355.744995,650.123474 326.014954,606.492676 315.660065,550.561890 
	C303.780396,486.395386 318.991943,428.939453 361.815155,379.628082 
	C390.219940,346.919678 426.570923,326.849030 468.900818,317.700531 
	C484.379272,314.355255 500.096619,312.494568 515.901489,312.868561 
	C564.790344,314.025391 608.727539,329.166107 646.012268,361.317993 
	C680.616882,391.158661 702.045349,428.920532 711.180542,473.669769 
	C711.644409,475.942200 711.936157,478.249756 712.329102,480.979980 
M416.346222,681.100952 
	C455.920837,703.769531 498.354614,711.477966 543.328796,704.735718 
	C593.748840,697.176941 634.912048,672.817871 666.179993,632.977783 
	C701.652466,587.780579 713.775696,535.882385 704.610718,479.365875 
	C696.198486,427.491211 669.796875,386.158142 627.071045,355.905365 
	C582.679749,324.473328 532.976135,314.542358 479.494720,323.255829 
	C434.097595,330.652191 395.812103,351.398468 365.707153,386.229156 
	C326.104706,432.048157 312.360901,485.771271 321.783936,544.857117 
	C331.320404,604.654175 364.079620,649.486694 416.346222,681.100952 
z"/>
<path fill="#000000" opacity="1.000000" stroke="none" 
	d="
M656.021667,436.876648 
	C649.579285,440.903656 647.297241,447.257019 645.222595,453.582092 
	C636.203918,481.078156 627.361694,508.632080 618.401428,536.147400 
	C614.436646,548.322510 610.347656,560.457214 606.305664,572.607178 
	C605.524048,574.956848 605.061768,577.328186 601.575134,577.377991 
	C597.977295,577.429504 597.102478,575.134705 596.223083,572.555603 
	C588.061523,548.618652 579.914062,524.676941 571.747192,500.741821 
	C570.788391,497.931915 569.737793,495.153320 568.188049,490.858978 
	C564.912659,499.958893 562.185974,507.712341 559.334961,515.419800 
	C552.292053,534.459839 545.208984,553.485107 538.094299,572.498474 
	C537.177551,574.948425 536.450195,577.494080 532.763611,577.374817 
	C528.964783,577.252014 528.716187,574.387573 527.901367,572.009583 
	C514.205444,532.038574 500.561554,492.049683 486.912720,452.062531 
	C484.408752,444.726562 481.977081,437.378723 473.170959,435.109894 
	C471.509338,434.681763 471.753235,433.058868 471.844543,431.739319 
	C471.970398,429.920227 473.363831,429.741943 474.729065,429.730927 
	C481.061462,429.679749 487.394165,429.663605 493.726776,429.656464 
	C501.226196,429.648041 508.725830,429.633087 516.224915,429.686920 
	C517.987488,429.699554 520.088135,429.388611 520.220093,432.186890 
	C520.317200,434.247894 519.383606,434.986511 517.356201,435.395172 
	C509.849609,436.908203 507.799530,440.042847 510.071167,447.384277 
	C516.851807,469.298157 523.862061,491.140991 530.797424,513.006897 
	C533.640808,521.971680 536.521851,530.924500 539.853394,541.345642 
	C544.107422,529.563354 547.783936,519.289795 551.526733,509.040466 
	C555.064941,499.351318 558.592712,489.656738 562.298157,480.031189 
	C563.438049,477.070068 563.670532,474.395508 562.456604,471.389008 
	C558.531067,461.667328 555.095642,451.736572 549.094177,442.983612 
	C546.659973,439.433380 543.759155,436.525787 539.499878,435.455719 
	C537.464050,434.944214 536.731262,433.921509 536.929565,431.938690 
	C537.137085,429.863159 538.637573,429.697784 540.183167,429.696259 
	C555.181824,429.681427 570.180420,429.686554 585.179077,429.703522 
	C586.795959,429.705353 588.147034,430.066254 588.215271,432.140442 
	C588.282959,434.198456 587.356018,434.932831 585.350342,435.377289 
	C577.422485,437.134155 574.788086,441.832123 577.355774,449.720215 
	C587.081604,479.598969 596.890198,509.450775 607.011536,540.362305 
	C609.049683,534.281616 610.885010,529.073914 612.543884,523.810547 
	C619.742004,500.971771 626.881592,478.114532 634.061829,455.270050 
	C635.165710,451.757812 636.106506,448.249664 635.657654,444.502319 
	C635.011108,439.103668 632.200928,436.133087 626.789124,435.391571 
	C624.976562,435.143219 622.964905,435.412872 622.940430,432.657684 
	C622.913940,429.669495 624.999023,429.679352 627.064148,429.675537 
	C636.396790,429.658295 645.731567,429.551178 655.060364,429.737213 
	C657.196472,429.779816 660.469727,428.185272 661.161438,432.079559 
	C661.830811,435.847656 658.074158,435.266266 656.021667,436.876648 
z"/>
<path fill="#000000" opacity="1.000000" stroke="none" 
	d="
M393.930115,559.081055 
	C402.970398,566.036499 412.478607,569.979370 423.862274,567.863953 
	C433.083557,566.150391 440.103699,561.582642 443.258209,552.604309 
	C446.643341,542.969666 444.140076,534.185364 437.559937,526.622375 
	C432.338470,520.621033 425.493469,516.761047 418.590210,513.006714 
	C409.667175,508.153900 400.241547,504.277954 391.584259,498.906464 
	C378.136719,490.562805 372.677948,478.009888 373.822754,462.844879 
	C374.900452,448.569916 382.607239,437.891113 395.181824,431.098938 
	C407.236298,424.587677 419.932617,424.082672 432.872009,428.293732 
	C436.192688,429.374451 439.492859,430.527802 442.760254,431.759796 
	C445.748383,432.886444 448.384583,432.901031 451.233704,430.966949 
	C455.012604,428.401642 457.293823,429.309204 457.626068,433.735443 
	C458.434723,444.509308 458.785461,455.317993 459.279083,466.114563 
	C459.352051,467.711273 458.987518,469.157745 456.932220,469.246155 
	C455.068878,469.326324 453.242218,469.464294 452.482513,467.103943 
	C451.566376,464.257568 450.641418,461.400635 449.484528,458.647369 
	C442.907990,442.995880 429.461456,434.108978 414.144501,435.198425 
	C404.340118,435.895782 396.048126,442.462341 393.164246,451.812988 
	C390.475403,460.531219 393.324799,468.519409 401.511292,475.089630 
	C408.717651,480.873230 417.043976,484.742615 425.210571,488.882568 
	C433.088287,492.876068 440.774017,497.157074 448.020081,502.270081 
	C462.326996,512.365356 469.029480,525.981323 465.832428,543.228210 
	C462.469757,561.368652 450.058105,571.433655 432.891205,576.310547 
	C419.089447,580.231567 405.869843,577.725525 392.974762,572.495422 
	C387.328430,570.205322 382.108276,568.698120 378.174652,575.216736 
	C377.484650,576.360168 376.214417,576.404541 375.030182,576.155090 
	C373.126648,575.754089 372.979736,574.120911 372.881714,572.645630 
	C372.550995,567.668701 372.434601,562.693665 371.832520,557.716370 
	C370.855743,549.641846 370.311523,541.508850 369.816895,533.386414 
	C369.694061,531.369690 368.431091,528.431458 372.062592,527.773254 
	C375.421448,527.164490 376.765228,528.879517 377.458801,532.021362 
	C379.828156,542.754517 385.033569,551.855591 393.930115,559.081055 
z"/>
</svg>