<svg version="1.1" id="Layer_1" xmlns="http://www.w3.org/2000/svg" xmlns:xlink="http://www.w3.org/1999/xlink" x="0px" y="0px"
	 width="100%" viewBox="0 0 1024 1024" enable-background="new 0 0 1024 1024" xml:space="preserve">
<path fill="#000000" opacity="1.000000" stroke="none" 
	d="
M580.888184,386.740173 
	C570.941772,413.805054 561.037598,440.471497 551.465088,467.256500 
	C549.902710,471.628021 547.081360,471.264954 543.716736,471.421265 
	C540.361450,471.577118 538.705627,470.419159 537.589966,467.132385 
	C520.915771,418.009796 503.508911,369.137115 487.408661,319.818024 
	C484.644470,311.350647 480.145752,304.350128 470.544983,302.557709 
	C466.713470,301.842377 467.828705,299.043518 467.717773,296.731018 
	C467.578369,293.824554 469.610046,293.666138 471.745758,293.666656 
	C489.578430,293.671082 507.411133,293.657837 525.243774,293.685516 
	C527.050232,293.688324 529.015503,293.556610 529.263855,296.251678 
	C529.489624,298.702454 528.809082,300.235962 526.311035,301.252869 
	C516.936340,305.068939 515.127441,308.275970 518.279907,318.194885 
	C526.636169,344.487244 535.396606,370.651031 543.983154,396.870239 
	C546.975708,406.008179 549.930237,415.158569 553.026367,424.685760 
	C555.200867,422.910583 555.897888,420.911285 556.630493,418.958252 
	C564.637451,397.615814 572.571228,376.245605 580.679810,354.941864 
	C582.181335,350.996948 582.282532,347.449280 580.791016,343.440491 
	C577.370850,334.248291 574.885437,324.719025 570.894897,315.722260 
	C567.541382,308.161652 562.636108,302.443054 553.891541,301.238586 
	C551.044189,300.846405 550.619507,298.981110 550.699646,296.543365 
	C550.785522,293.930847 552.442200,293.667633 554.422119,293.667786 
	C575.088013,293.669250 595.753906,293.665405 616.419800,293.677582 
	C618.303833,293.678680 620.104675,293.723175 620.287964,296.392731 
	C620.472778,299.083527 619.428589,300.094727 616.739807,300.607147 
	C605.279297,302.791290 599.717773,306.577423 604.581421,321.362640 
	C615.964905,355.967682 627.990051,390.347626 640.592957,424.526276 
	C640.874023,425.288727 641.316711,425.991547 641.869751,427.091553 
	C643.940125,424.453003 644.392273,421.474518 645.287354,418.746094 
	C654.670776,390.143616 665.759827,362.106720 673.962585,333.121033 
	C676.057617,325.718079 678.570740,318.270325 676.940125,310.171234 
	C675.881470,304.912720 672.873535,302.454620 668.086487,301.369263 
	C666.791931,301.075745 665.507751,300.714050 664.199097,300.510651 
	C661.688049,300.120361 661.666443,298.332062 661.698914,296.401611 
	C661.737549,294.111938 663.205505,293.695740 665.040833,293.695160 
	C680.373352,293.690247 695.705872,293.681427 711.038391,293.697479 
	C712.595032,293.699127 714.104919,293.894989 714.222595,295.994690 
	C714.337341,298.041962 714.514404,300.238373 712.055359,301.003784 
	C700.561218,304.581726 695.808655,314.134918 691.599670,324.080658 
	C676.351135,360.112274 664.786011,397.493866 651.380554,434.201569 
	C647.443909,444.981262 643.429932,455.745026 639.962952,466.678253 
	C638.439087,471.483887 635.292419,471.245148 631.515015,471.446198 
	C627.571655,471.656006 625.607117,470.381012 624.262451,466.515747 
	C613.167908,434.626404 601.856445,402.812500 590.605347,370.977661 
	C590.173645,369.756104 589.686829,368.554016 588.664795,365.869629 
	C585.814575,373.537994 583.427734,379.959595 580.888184,386.740173 
z"/>
<path fill="#000000" opacity="1.000000" stroke="none" 
	d="
M232.998596,476.067719 
	C249.252350,476.503906 265.141174,475.347839 280.576904,479.709961 
	C291.163116,482.701508 300.809479,487.390320 307.954071,496.134766 
	C321.445526,512.647400 318.599243,544.950317 289.297272,554.208252 
	C287.413300,554.803528 285.450836,555.153503 283.504730,556.578186 
	C289.153656,558.650879 294.722351,560.252075 299.904633,562.678528 
	C315.382477,569.925476 323.876862,582.077881 323.246002,599.405701 
	C322.637939,616.107971 314.737793,628.466492 299.228027,635.498413 
	C288.014008,640.582703 276.113129,643.071899 263.931000,643.254761 
	C239.786148,643.617126 215.632095,643.381653 191.481888,643.361633 
	C185.445663,643.356628 185.195953,642.979858 186.262543,636.248596 
	C189.468796,635.452271 192.871399,634.812134 196.138275,633.753174 
	C202.962585,631.541138 205.653397,627.902283 205.659180,620.885193 
	C205.693573,579.080322 205.686996,537.275391 205.665405,495.470490 
	C205.662552,489.956390 203.396622,487.065399 197.790390,485.546082 
	C195.403656,484.899261 192.904602,484.549072 190.433929,484.359253 
	C187.305923,484.118927 185.479340,483.077026 185.636124,479.498901 
	C185.791611,475.950714 188.199844,476.105164 190.528229,476.098663 
	C204.518417,476.059692 218.508728,476.072357 232.998596,476.067719 
M235.309341,600.500000 
	C235.304108,605.491638 235.246994,610.483948 235.303314,615.474854 
	C235.474976,630.683533 231.948135,632.763367 252.585800,632.829956 
	C260.389130,632.855164 268.229736,632.973206 275.677002,629.988831 
	C287.022766,625.442322 294.483398,614.198242 294.650970,601.375122 
	C294.870178,584.600830 288.238770,573.389160 274.932892,567.523987 
	C263.242065,562.370789 250.931503,563.003418 238.637756,563.177795 
	C235.135010,563.227478 235.301743,565.647766 235.304413,568.052551 
	C235.316055,578.535034 235.310287,589.017517 235.309341,600.500000 
M277.212036,544.727478 
	C282.893402,539.454224 285.276672,532.498657 286.240997,525.194092 
	C288.305664,509.554474 284.153473,496.271118 268.478394,490.178223 
	C259.048981,486.513062 249.034424,486.288147 239.140259,485.408508 
	C236.784271,485.199036 235.331451,486.019104 235.334778,488.725037 
	C235.359512,508.857208 235.350876,528.989502 235.302521,549.121643 
	C235.296402,551.670288 236.391602,552.731384 238.901199,552.692261 
	C243.891602,552.614441 248.923080,553.030029 253.865952,552.531433 
	C261.933014,551.717651 270.180267,551.066589 277.212036,544.727478 
z"/>
<path fill="#000000" opacity="1.000000" stroke="none" 
	d="
M358.736755,434.274231 
	C369.348358,452.260162 383.987579,463.423096 405.232452,463.537964 
	C413.436218,463.582336 421.350525,461.536438 428.403595,456.876465 
	C445.041779,445.883667 446.330170,420.830200 430.838959,408.251160 
	C419.774353,399.266602 406.360565,394.894043 393.546021,389.372406 
	C385.888245,386.072754 378.427887,382.460571 371.228485,378.220673 
	C342.838623,361.501160 342.074188,319.560760 369.158051,300.074158 
	C382.552155,290.437225 397.665802,287.235687 414.010895,288.303589 
	C424.978882,289.020142 435.328186,291.593353 445.130341,296.450165 
	C447.028839,297.390839 448.617310,296.885010 450.370056,296.214600 
	C452.643127,295.345184 454.769684,293.906219 457.911224,293.899261 
	C459.126099,309.593323 460.765778,325.010620 460.414215,340.602539 
	C455.597626,342.464447 453.291840,340.937286 451.970001,336.164337 
	C448.792267,324.690063 443.359711,314.366211 433.475281,307.259979 
	C420.432739,297.883270 405.992432,295.764984 390.844727,301.192047 
	C373.199371,307.513916 368.870209,329.691742 382.194641,343.988861 
	C388.620331,350.883606 397.004913,354.659698 405.244415,358.621277 
	C416.649292,364.104797 428.458557,368.801117 439.327454,375.325378 
	C452.537140,383.254791 463.143799,393.325653 466.550140,409.336487 
	C470.968201,430.102875 461.927979,452.157928 443.725006,463.296173 
	C428.870300,472.385681 412.673218,475.233368 395.388580,473.635223 
	C383.973907,472.579895 373.155090,469.677429 362.734222,465.170441 
	C359.292572,463.681976 356.154053,463.323944 352.719360,464.778931 
	C351.385071,465.344147 349.950165,466.013519 348.012756,465.018097 
	C347.120605,459.697327 347.543671,454.024902 346.937042,448.436981 
	C345.736542,437.378815 345.392059,426.226318 344.761993,415.108948 
	C344.652893,413.183472 344.265717,410.970490 347.349609,410.708679 
	C350.090912,410.475952 351.042938,411.685425 351.593994,414.284210 
	C353.044403,421.124420 355.033356,427.824188 358.736755,434.274231 
z"/>
<path fill="#000000" opacity="1.000000" stroke="none" 
	d="
M554.701538,620.855225 
	C552.744080,610.514954 553.839539,600.498169 553.695374,590.531250 
	C553.509888,577.703735 553.675110,564.871399 553.640991,552.041260 
	C553.619568,543.964233 551.377258,540.540405 543.693115,538.745117 
	C539.438904,537.751221 539.225769,535.626282 540.227661,531.731506 
	C551.577637,531.731506 563.021301,531.717529 574.465027,531.740967 
	C577.420349,531.747009 577.319641,533.959229 577.324829,535.983948 
	C577.347412,544.815125 577.346069,553.646301 577.347839,562.477478 
	C577.350708,576.807373 577.382507,591.137329 577.329041,605.467041 
	C577.313416,609.669617 578.048889,613.736023 579.189758,617.730957 
	C581.959595,627.429443 590.094177,632.243347 599.927795,630.313477 
	C610.564026,628.226135 619.161011,623.740479 622.053345,612.259705 
	C622.454224,610.668579 622.635742,608.981384 622.640747,607.337830 
	C622.696594,589.009399 622.759216,570.680481 622.687073,552.352295 
	C622.652283,543.504883 620.969177,540.925659 612.713501,538.586182 
	C608.636902,537.430847 609.744873,535.008423 609.891663,531.682007 
	C621.846558,532.259460 633.650024,530.364197 645.468018,530.611084 
	C646.809875,532.665955 646.308899,534.721375 646.311768,536.662109 
	C646.352783,564.155396 646.338867,591.648804 646.352905,619.142151 
	C646.357605,628.377136 647.087891,629.498169 656.040039,632.754333 
	C658.142334,633.519043 658.307068,634.899963 658.294922,636.620972 
	C658.283875,638.181396 658.132690,639.940552 656.212646,640.069031 
	C645.268677,640.801270 634.702026,643.766418 623.509216,645.833984 
	C621.996216,640.691040 623.296692,635.666260 622.466309,630.280334 
	C617.571838,634.331238 612.892944,637.960815 607.665710,640.821167 
	C593.132141,648.773743 575.920715,648.149597 564.857788,639.157532 
	C559.151855,634.519653 556.288025,628.274719 554.701538,620.855225 
z"/>
<path fill="#000000" opacity="1.000000" stroke="none" 
	d="
M462.848450,567.088867 
	C458.043976,570.079712 453.125488,570.731750 448.904053,567.683838 
	C444.448212,564.466736 445.299652,559.415466 446.799927,554.830750 
	C449.363037,546.997986 455.042633,541.687805 461.649414,537.210693 
	C473.814514,528.967041 487.030579,525.862244 501.460693,529.425598 
	C516.933838,533.246521 525.230896,543.732849 525.317078,559.628540 
	C525.426453,579.794434 525.349670,599.961365 525.346497,620.127808 
	C525.346130,622.460266 525.422241,624.739075 526.180481,627.019226 
	C528.008789,632.517456 531.192810,634.031616 536.512451,631.516296 
	C538.790283,630.439270 540.710754,628.777649 542.811462,632.016479 
	C544.938477,635.295837 542.408386,636.508545 540.634155,638.064453 
	C539.137695,639.376831 537.459656,640.492126 535.809570,641.617737 
	C525.133118,648.900513 507.303131,649.633667 501.841888,630.140686 
	C499.325195,632.673706 496.969940,635.247864 494.403992,637.591187 
	C483.960815,647.128540 464.679901,649.411804 453.842163,642.476013 
	C437.907135,632.278076 438.759247,607.887024 455.505066,595.824951 
	C465.654480,588.514221 477.431396,584.767456 489.029968,580.620728 
	C504.154541,575.213379 501.348267,579.614685 501.627411,563.009399 
	C501.671906,560.362671 501.620941,557.737427 501.116638,555.067444 
	C498.469574,541.052856 487.703186,538.209106 475.607513,541.046997 
	C469.955566,542.373047 467.331970,547.163635 467.383148,554.328796 
	C467.416656,559.020508 467.928314,563.802307 462.848450,567.088867 
M499.976318,620.224976 
	C500.489868,619.194824 501.437714,618.169617 501.449493,617.133789 
	C501.562317,607.220642 501.516937,597.305664 501.516937,586.346313 
	C488.986450,590.443115 476.954803,593.483521 468.678192,603.845703 
	C467.760620,604.994568 466.991943,606.364502 466.528839,607.756592 
	C464.374329,614.232117 464.229523,620.559326 469.094849,625.992065 
	C473.766693,631.208801 479.670502,631.565369 486.007843,629.734375 
	C491.449341,628.162170 495.816498,624.997375 499.976318,620.224976 
z"/>
<path fill="#000000" opacity="1.000000" stroke="none" 
	d="
M811.128174,588.275513 
	C815.832520,575.595398 820.436707,563.291077 824.911987,550.940002 
	C828.145508,542.015869 827.250000,540.424133 817.957092,538.259583 
	C815.880127,537.775696 814.706055,536.967346 814.721069,534.648743 
	C814.737793,532.069702 816.271790,531.671082 818.317566,531.672974 
	C828.145630,531.681946 837.973755,531.653931 847.801697,531.689148 
	C849.258301,531.694397 850.879333,531.606995 851.197998,533.731323 
	C851.526794,535.922607 850.702393,537.252136 848.548950,537.764038 
	C842.898560,539.107117 840.121399,543.253418 838.134277,548.271484 
	C824.539185,582.601685 810.929443,616.926147 797.282043,651.235596 
	C794.147278,659.116394 791.336365,667.180420 787.048950,674.517700 
	C779.808899,686.907776 769.898499,695.232422 754.465942,694.354309 
	C746.884094,693.922913 741.630615,688.787048 741.647705,681.834045 
	C741.657593,677.825134 743.139954,674.614624 746.720581,672.769958 
	C750.183472,670.985962 753.743774,671.100342 757.185486,673.154480 
	C765.161682,677.914978 773.596130,676.101990 778.899292,668.362854 
	C783.750122,661.283752 786.503906,653.234558 789.256470,645.195374 
	C789.910461,643.285461 789.346069,641.621338 788.670776,639.893005 
	C776.504578,608.755127 764.321289,577.623779 752.227905,546.457581 
	C750.384949,541.708069 747.678162,538.402344 742.192993,538.193054 
	C739.749878,538.099915 738.654419,536.717285 738.852844,534.232422 
	C739.067444,531.544312 741.017395,531.674805 742.856262,531.672607 
	C756.349304,531.656616 769.842285,531.653259 783.335327,531.677612 
	C785.174500,531.680908 787.080444,531.628296 787.248718,534.331604 
	C787.407654,536.883667 786.081787,537.777161 783.825562,538.329102 
	C776.182617,540.198792 775.188538,541.954407 777.904419,549.087036 
	C785.360107,568.667542 792.904785,588.214233 800.431335,607.767700 
	C800.830994,608.805847 801.388550,609.783142 802.241272,611.554688 
	C805.334351,603.434143 808.153564,596.032715 811.128174,588.275513 
z"/>
<path fill="#000000" opacity="1.000000" stroke="none" 
	d="
M369.180969,644.190857 
	C350.803131,637.661804 341.204712,624.018188 336.482208,606.299683 
	C329.665100,580.722168 339.146484,552.159607 360.072235,536.664429 
	C383.575134,519.260986 421.645752,527.266968 428.855469,561.505554 
	C429.658051,565.316956 429.047089,569.153625 429.376953,572.955444 
	C429.730591,577.031250 428.205353,578.511169 424.012970,578.438232 
	C411.517975,578.220703 399.016632,578.366333 386.517792,578.369873 
	C378.851837,578.372070 371.185913,578.374939 363.519958,578.375000 
	C361.409637,578.375000 359.454102,578.476135 359.347168,581.373108 
	C358.780487,596.726379 361.991608,610.966003 372.884491,622.372437 
	C384.119537,634.137085 401.933075,634.495483 414.343109,623.577698 
	C417.451447,620.843079 420.275421,617.717224 422.855865,614.473511 
	C424.689697,612.168396 426.200378,612.382935 428.336090,613.778503 
	C430.580353,615.245056 431.092468,616.741699 429.570099,619.125854 
	C415.982025,640.405945 396.179535,651.450745 369.180969,644.190857 
M384.499603,569.649597 
	C388.658936,569.649536 392.818268,569.649780 396.977600,569.649353 
	C406.089905,569.648376 406.089935,569.648254 405.633026,560.581665 
	C405.101318,550.030762 398.338165,540.687073 389.761078,538.653503 
	C379.824768,536.297668 369.811340,541.287964 364.555511,551.342712 
	C361.682678,556.838623 359.970459,562.666870 360.057281,569.649109 
	C367.969818,569.649109 375.734772,569.649109 384.499603,569.649597 
z"/>
<path fill="#000000" opacity="1.000000" stroke="none" 
	d="
M690.201538,641.991089 
	C683.026978,636.136047 681.158875,628.441345 680.619141,620.028076 
	C679.060059,595.726135 681.164429,571.435730 680.672119,547.139587 
	C680.534607,540.354370 680.634827,540.351990 673.712036,540.305054 
	C671.880249,540.292664 670.045898,540.341064 668.217468,540.256714 
	C666.433533,540.174438 664.387817,540.450745 663.848633,537.962585 
	C663.326843,535.554626 664.082153,533.807678 666.338623,532.603760 
	C668.389709,531.509399 670.291931,530.139648 672.290466,528.942444 
	C683.797241,522.049561 692.210327,512.450684 697.525085,500.138550 
	C698.448486,497.999512 699.096130,495.416473 702.275513,496.176178 
	C705.407593,496.924561 704.259888,499.657043 704.289490,501.586273 
	C704.417297,509.910889 704.466370,518.241150 704.289856,526.563965 
	C704.212341,530.216431 705.577393,531.723816 709.219238,531.654968 
	C715.211853,531.541687 721.211853,531.770752 727.202515,531.615906 
	C730.621765,531.527527 731.405762,533.138184 731.379517,536.185364 
	C731.354492,539.106995 730.395447,540.444580 727.332214,540.385315 
	C721.172974,540.266113 715.007751,540.448242 708.848938,540.317993 
	C705.797485,540.253479 704.271545,541.086426 704.286011,544.509216 
	C704.386719,568.322754 704.133301,592.139648 704.441895,615.949646 
	C704.616089,629.394287 713.940491,635.046631 726.223816,629.676025 
	C728.642517,628.618530 730.924988,627.177490 733.112671,625.682556 
	C735.553040,624.015076 736.720337,625.760132 738.106201,627.185303 
	C739.653564,628.776428 739.777832,630.283386 738.063416,631.895447 
	C726.705750,642.575012 713.906555,648.869995 697.801636,645.331543 
	C695.157227,644.750488 692.781006,643.611816 690.201538,641.991089 
z"/>
</svg>