<svg version="1.1" id="Layer_1" xmlns="http://www.w3.org/2000/svg" xmlns:xlink="http://www.w3.org/1999/xlink" x="0px" y="0px"
	 width="100%" viewBox="0 0 1024 1024" enable-background="new 0 0 1024 1024" xml:space="preserve">
<path fill="#000000" opacity="1.000000" stroke="none" 
	d="
M548.000122,287.642334 
	C609.832764,287.643982 671.165344,287.643219 732.497986,287.650818 
	C739.324219,287.651672 739.344543,287.673676 739.344727,294.496124 
	C739.348694,440.161133 739.348633,585.826172 739.344788,731.491150 
	C739.344604,738.354309 739.325195,738.375732 732.520264,738.375916 
	C586.355286,738.379822 440.190308,738.379761 294.025330,738.374939 
	C286.673370,738.374695 286.661743,738.351746 286.661530,730.983643 
	C286.657166,585.651978 286.654968,440.320282 286.655975,294.988586 
	C286.656036,287.663940 286.671326,287.648743 294.003754,287.648315 
	C378.502533,287.643463 463.001282,287.643616 548.000122,287.642334 
M726.655518,676.500061 
	C726.655457,554.356018 726.655396,432.211975 726.655090,310.067932 
	C726.655090,308.234955 726.550171,306.395386 726.669983,304.570465 
	C726.861572,301.652893 725.783081,300.146973 722.677002,300.363617 
	C721.019226,300.479187 719.345886,300.365936 717.679565,300.365906 
	C580.704468,300.364105 443.729401,300.362976 306.754303,300.363129 
	C299.359772,300.363159 299.350555,300.368561 299.350464,307.743622 
	C299.348480,444.552063 299.348480,581.360535 299.349915,718.168945 
	C299.350006,725.642761 299.357788,725.651184 307.131165,725.651306 
	C371.452789,725.652405 435.774445,725.649597 500.096069,725.649170 
	C573.416077,725.648743 646.736023,725.650696 720.056030,725.648071 
	C726.626099,725.647888 726.644226,725.635864 726.650391,718.992554 
	C726.663147,705.161743 726.654785,691.330933 726.655518,676.500061 
z"/>
<path fill="#000000" opacity="1.000000" stroke="none" 
	d="
M571.405396,435.403503 
	C569.926270,430.920166 568.864807,426.696320 567.171387,422.743195 
	C564.956726,417.573456 560.936768,414.062378 555.357849,412.872162 
	C552.173340,412.192749 551.465027,410.450195 551.670532,407.548889 
	C551.911255,404.149567 554.352173,404.690002 556.409668,404.685486 
	C574.075500,404.646759 591.741455,404.666931 609.407410,404.654297 
	C612.021484,404.652435 614.360291,404.559082 614.385864,408.391327 
	C614.410278,412.038391 612.433838,412.245087 609.628662,412.394775 
	C600.003540,412.908386 595.796875,418.314667 598.341736,427.785004 
	C608.646240,466.131256 619.199829,504.410583 629.676025,542.710632 
	C629.887085,543.482239 630.274292,544.205750 630.885620,545.701111 
	C640.585632,509.602997 650.112244,474.166107 659.624268,438.725342 
	C660.528687,435.355591 661.453308,431.984955 662.175842,428.573944 
	C664.014465,419.894257 659.778198,413.576080 651.109436,412.453491 
	C648.211670,412.078247 646.496399,411.618927 646.608032,408.134979 
	C646.736694,404.120911 649.427307,404.691162 651.845154,404.683502 
	C664.011230,404.644928 676.177612,404.625977 688.343445,404.691101 
	C690.329651,404.701721 692.930542,403.952728 693.270752,407.333099 
	C693.546692,410.074982 693.138794,411.945770 689.906067,412.898560 
	C681.512695,415.372406 677.426208,422.053619 675.205994,429.855560 
	C670.429932,446.638306 665.973450,463.512146 661.401184,480.352753 
	C651.647156,516.278992 641.883301,552.202454 632.182739,588.143127 
	C631.164307,591.916321 630.144043,594.682861 625.089050,594.549805 
	C620.172791,594.420410 617.361267,593.577942 615.799072,588.201111 
	C605.752747,553.622864 595.327698,519.154541 584.762146,483.762817 
	C579.782959,499.363983 575.083435,514.196228 570.314392,529.006104 
	C563.688354,549.582642 556.967224,570.128662 550.406677,590.725891 
	C549.542969,593.437683 548.079468,594.317505 545.360901,594.413025 
	C535.986572,594.742554 536.029236,594.813477 533.509033,585.939941 
	C518.752136,533.981873 503.980530,482.027893 489.199219,430.076752 
	C486.858826,421.851227 482.843353,415.010803 473.963745,412.432892 
	C470.914459,411.547638 471.751404,409.144531 471.783661,407.099396 
	C471.821625,404.694275 473.680878,404.695435 475.371033,404.694031 
	C493.870056,404.678650 512.369141,404.703400 530.868042,404.665649 
	C533.465881,404.660370 534.410522,405.865143 534.346008,408.333954 
	C534.289429,410.498291 534.078857,411.984192 531.254150,412.397980 
	C519.718323,414.087738 517.027283,418.329407 520.048523,429.985809 
	C528.591614,462.946198 537.218079,495.884979 545.836914,528.825684 
	C547.325806,534.515869 548.938293,540.173706 551.649292,545.813049 
	C554.890137,535.561157 558.155396,525.316833 561.366394,515.055603 
	C566.729919,497.915466 572.019897,480.752197 577.445190,463.631744 
	C578.235474,461.137909 578.270996,458.852264 577.526184,456.380005 
	C575.463989,449.534790 573.527954,442.651581 571.405396,435.403503 
z"/>
<path fill="#000000" opacity="1.000000" stroke="none" 
	d="
M423.712830,484.233582 
	C434.978790,489.775024 445.534546,495.673553 454.866211,503.688019 
	C476.763428,522.494263 475.494019,554.813843 457.854675,574.963257 
	C445.823334,588.706604 430.340729,595.162781 411.950897,595.524353 
	C398.060791,595.797485 384.828369,593.439331 371.960938,588.528809 
	C367.620483,586.872314 363.870483,586.490295 361.416595,591.459595 
	C360.168457,593.987122 357.748871,593.495728 355.682556,593.111877 
	C353.150787,592.641602 353.827850,590.346069 353.662567,588.622131 
	C352.062195,571.932434 350.440704,555.244568 348.931427,538.546509 
	C348.742676,536.457947 347.468384,533.510376 350.993317,532.863708 
	C354.186951,532.277893 357.260193,532.184082 358.345428,536.557617 
	C360.808044,546.481934 364.548157,555.906677 370.725830,564.164673 
	C383.336670,581.022156 400.291992,585.224304 418.457245,582.077698 
	C430.766815,579.945435 439.141998,572.167908 442.249542,559.861877 
	C445.491638,547.022949 441.952606,535.833740 432.199646,526.837402 
	C423.389648,518.710815 412.533722,513.829712 402.053680,508.377472 
	C391.433838,502.852448 380.408539,498.038513 371.078156,490.284363 
	C355.122864,477.024414 351.913605,459.810364 356.048981,440.625824 
	C360.290588,420.948669 372.457764,408.115173 391.818268,402.865082 
	C408.212402,398.419464 424.493011,399.916901 440.061829,406.835114 
	C443.889496,408.536011 446.948090,409.217438 449.526978,405.262054 
	C450.794495,403.317993 452.677460,403.622009 454.459991,403.943756 
	C456.459869,404.304779 456.200409,406.076324 456.341095,407.533478 
	C457.649323,421.080994 458.986420,434.625824 460.234283,448.178925 
	C460.443268,450.448669 460.263763,452.754181 460.263763,454.937195 
	C452.231049,456.079895 452.122650,456.113403 449.965729,449.135101 
	C446.859406,439.085144 442.207031,430.049561 434.074463,423.065857 
	C425.102051,415.361023 414.755707,411.900146 403.097504,413.863617 
	C391.677826,415.786835 383.544739,422.207458 380.451721,433.726532 
	C377.101471,446.203400 381.600403,456.335205 390.974823,464.471832 
	C400.623810,472.846710 412.099274,478.323090 423.712830,484.233582 
z"/>
</svg>