<svg version="1.1" id="Layer_1" xmlns="http://www.w3.org/2000/svg" xmlns:xlink="http://www.w3.org/1999/xlink" x="0px" y="0px"
	 width="100%" viewBox="0 0 1024 1024" enable-background="new 0 0 1024 1024" xml:space="preserve">
<path fill="#000000" opacity="1.000000" stroke="none" 
	d="
M313.215942,535.064453 
	C311.502411,537.768677 312.471313,542.501465 308.682465,542.417480 
	C305.107361,542.338196 305.347961,537.914124 304.354523,535.305603 
	C295.707062,512.599609 287.192993,489.842285 278.746216,467.060577 
	C277.016785,462.396027 275.226746,458.013947 269.819153,456.544556 
	C268.855743,456.282776 267.932831,455.748505 268.055389,454.478851 
	C268.148834,453.510651 268.814667,452.924255 269.696106,452.921204 
	C280.244354,452.884766 290.792725,452.897675 301.466003,452.897675 
	C301.436584,456.750763 298.815460,456.211090 297.178131,456.766083 
	C293.228760,458.104767 291.122620,460.608490 292.641083,464.725861 
	C298.860046,481.588806 305.096375,498.449554 312.375275,514.896790 
	C312.627533,515.466736 313.084198,515.946106 313.850372,517.051941 
	C318.983521,503.494080 324.301483,490.594086 328.182373,477.199799 
	C329.689362,471.998749 322.769745,459.525299 317.795654,456.941620 
	C316.539520,456.289185 314.748138,456.088898 315.299744,452.859680 
	C325.726562,452.708466 336.320831,452.329834 346.970001,453.122314 
	C346.796265,456.430237 345.075745,456.554718 343.736359,457.038055 
	C338.490295,458.931152 337.635468,460.296051 339.589996,465.530396 
	C344.131042,477.691864 348.773956,489.818512 353.610901,501.864807 
	C355.551025,506.696686 356.739349,511.963806 360.867310,516.864014 
	C364.030487,508.397736 366.973114,500.682465 369.795563,492.923462 
	C372.753601,484.791504 375.691345,476.649750 378.460968,468.452454 
	C380.912140,461.197815 379.861450,459.143311 372.832245,456.250061 
	C372.248993,456.009949 371.744324,455.579071 371.281647,455.286499 
	C371.168335,452.854004 372.814270,452.766541 374.297699,452.754333 
	C381.295380,452.696594 388.293793,452.700226 395.291779,452.726776 
	C396.417542,452.731049 397.799988,452.607330 398.144745,454.117401 
	C398.572998,455.992920 397.069916,456.367615 395.781769,456.634003 
	C389.578522,457.916840 386.860535,462.491577 384.878571,467.874786 
	C376.424286,490.837555 367.933655,513.786987 359.459839,536.742554 
	C359.114197,537.678894 358.802704,538.627869 358.478424,539.572083 
	C358.040619,540.846680 357.636993,542.196899 355.996796,542.338867 
	C354.054321,542.506958 353.429626,540.959717 352.908417,539.591187 
	C349.710388,531.194336 346.586365,522.769287 343.439575,514.352966 
	C339.794617,504.604187 336.151581,494.854675 332.030151,483.827850 
	C325.469543,501.684326 319.405151,518.190247 313.215942,535.064453 
z"/>
<path fill="#000000" opacity="1.000000" stroke="none" 
	d="
M438.385742,456.707184 
	C435.358063,455.007568 435.174316,453.702576 438.444275,452.875122 
	C439.233551,452.675385 440.100098,452.752533 440.931183,452.750610 
	C453.415466,452.721924 465.901337,452.575165 478.383392,452.731140 
	C484.797516,452.811279 490.863495,454.470001 496.192444,458.312317 
	C507.710968,466.617401 507.172638,484.240448 495.134155,491.710663 
	C493.625122,492.647064 492.046051,493.470520 490.017914,494.618896 
	C493.231445,496.141205 495.962463,497.311096 498.578766,498.697449 
	C506.558136,502.925537 511.166779,511.766479 510.179199,520.749451 
	C509.230591,529.377441 503.728729,535.636963 494.637665,538.186218 
	C490.308350,539.400146 485.850586,540.189026 481.355713,540.218079 
	C467.373749,540.308594 453.390564,540.258301 439.408234,540.187927 
	C437.723999,540.179443 435.202515,540.903259 434.899506,538.360535 
	C434.589386,535.757751 437.102875,536.001404 438.826233,535.685364 
	C445.092896,534.536133 446.635284,532.766724 446.645233,526.309082 
	C446.675690,506.500336 446.667480,486.691559 446.648865,466.882782 
	C446.642517,460.158936 445.412018,458.642212 438.385742,456.707184 
M464.909119,498.162842 
	C461.513214,497.994110 461.308594,500.212585 461.329010,502.774261 
	C461.384674,509.760071 461.334717,516.746643 461.352753,523.732788 
	C461.372437,531.359131 463.654144,533.918152 471.202942,534.596252 
	C473.347656,534.788818 475.537384,534.787537 477.683502,534.605042 
	C487.460907,533.773376 492.672821,528.504089 493.586273,518.671143 
	C494.456940,509.298584 489.340057,501.751404 480.674011,499.263397 
	C475.763550,497.853546 470.785187,498.240540 464.909119,498.162842 
M461.342926,486.296082 
	C461.773560,488.761993 459.879639,492.515717 464.659393,492.613525 
	C468.988800,492.702118 473.344025,492.878235 477.647522,492.524750 
	C482.470459,492.128601 486.398041,489.719330 487.793243,484.894836 
	C489.958466,477.407684 489.769958,469.795959 484.817047,463.473236 
	C480.249847,457.642822 473.223663,457.623962 466.476410,457.925873 
	C462.850830,458.088074 461.243835,460.140869 461.312073,463.850769 
	C461.443848,471.012848 461.345154,478.179199 461.342926,486.296082 
z"/>
<path fill="#000000" opacity="1.000000" stroke="none" 
	d="
M255.179626,470.998230 
	C255.322083,472.932404 255.370697,474.432800 255.518219,475.923401 
	C255.653824,477.293457 255.901062,478.760010 254.043411,479.038605 
	C252.272644,479.304230 251.966309,477.818695 251.480713,476.556854 
	C250.167511,473.144470 249.058167,469.618073 247.385422,466.386688 
	C243.532364,458.943390 236.068146,455.287659 227.803665,456.429443 
	C221.822739,457.255737 216.814240,461.764130 215.583572,467.429291 
	C214.303955,473.319672 217.887405,481.088196 223.886856,484.287506 
	C228.426010,486.708038 233.284592,488.532776 238.015228,490.590027 
	C242.904022,492.716034 247.874786,494.708649 251.981934,498.232483 
	C262.202393,507.001404 263.137543,521.586487 254.169891,531.659607 
	C245.998001,540.838867 231.909164,544.337769 220.392044,539.959473 
	C216.415497,538.447815 212.711441,536.986633 208.780945,540.471130 
	C206.945755,542.098083 205.204620,540.598877 205.042328,538.347595 
	C204.444183,530.049133 204.015610,521.738464 203.509552,513.433289 
	C203.443390,512.347351 203.597198,511.301941 204.814087,511.102631 
	C206.556320,510.817322 207.026169,512.093262 207.375397,513.490479 
	C208.932327,519.719482 211.348740,525.514893 216.113739,530.044373 
	C221.982941,535.623535 228.835022,537.906067 236.703705,535.367676 
	C242.437683,533.517944 246.928238,529.789307 247.464813,523.482971 
	C248.091034,516.123657 245.023529,509.942383 238.421555,506.381714 
	C232.874771,503.390167 226.951065,501.051727 221.075256,498.724548 
	C202.617294,491.414093 201.640884,473.231018 208.020935,462.663910 
	C214.240402,452.362793 229.334244,447.907166 241.732651,452.692200 
	C244.596893,453.797638 247.115906,455.593170 250.533966,453.233704 
	C252.754471,451.700928 253.459290,454.346497 253.829651,456.159363 
	C254.799850,460.908386 253.801651,465.839508 255.179626,470.998230 
z"/>
<path fill="#000000" opacity="1.000000" stroke="none" 
	d="
M655.739014,518.907593 
	C655.739563,511.421478 655.509949,504.412109 655.813660,497.425964 
	C656.066528,491.610809 654.781677,487.199036 648.443176,485.671295 
	C647.522827,485.449463 646.553040,484.935242 646.244080,483.200775 
	C648.211609,480.545776 651.551331,481.832672 654.206421,481.388519 
	C668.352478,479.022308 668.216248,479.110748 668.424377,493.183990 
	C668.569397,502.991241 667.375183,512.859253 669.204102,522.599304 
	C670.565186,529.847839 675.052429,533.601929 681.825195,533.669861 
	C689.284485,533.744690 693.873169,530.442810 694.977722,522.780090 
	C696.404236,512.883667 695.848511,502.849152 695.218994,492.885254 
	C694.989929,489.259369 692.783997,486.817780 689.173157,485.729156 
	C687.852966,485.331146 686.023254,485.305511 686.118469,482.541931 
	C692.688843,480.695618 699.489807,480.020294 706.357666,481.206543 
	C708.987305,481.660736 708.302307,484.373627 708.309692,486.264496 
	C708.355225,497.929840 708.448730,509.597504 708.261780,521.260132 
	C708.165039,527.295044 708.679016,532.669067 715.700256,534.630127 
	C715.990540,534.711243 716.095520,535.456299 716.363586,536.067017 
	C714.768066,538.358948 712.212036,537.786804 710.061584,538.197693 
	C707.449341,538.696777 704.688049,538.668640 702.196716,539.490967 
	C697.906189,540.907104 695.165771,540.020813 694.372314,534.863831 
	C684.150330,540.974731 673.934570,545.804565 662.826843,538.629150 
	C655.926208,534.171448 655.806335,526.662354 655.739014,518.907593 
z"/>
<path fill="#000000" opacity="1.000000" stroke="none" 
	d="
M585.998901,530.309814 
	C585.217957,519.528259 587.590088,515.810120 597.314636,512.193359 
	C602.460510,510.279572 607.561096,508.161377 612.840454,506.712433 
	C618.218750,505.236328 619.051086,501.793182 618.818542,496.938538 
	C618.455261,489.356049 616.440063,486.096924 610.362061,484.757385 
	C605.054382,483.587677 600.692017,486.275757 599.407288,491.562500 
	C599.014832,493.177277 598.478333,494.833099 598.510193,496.460266 
	C598.596924,500.891937 595.764893,501.033203 592.511475,501.046448 
	C588.693542,501.061981 587.771729,498.875031 587.661682,495.588074 
	C587.418762,488.337982 592.275513,484.696136 597.757874,482.054382 
	C605.431152,478.356964 613.560730,478.300781 621.538452,481.327271 
	C628.041992,483.794525 631.310181,488.880402 631.340515,496.066620 
	C631.381287,505.732330 631.312073,515.398621 631.373901,525.064087 
	C631.416687,531.742432 634.144470,533.503235 639.929016,530.655701 
	C641.006226,530.125427 641.983093,529.365479 643.069092,530.428162 
	C644.147278,531.483154 643.433105,532.595825 642.977234,533.644470 
	C639.280212,542.150146 627.766541,543.695557 621.919373,536.469788 
	C621.296509,535.700073 620.750244,534.868408 620.153320,534.044678 
	C617.858643,534.188354 616.630554,535.978088 615.007935,537.006409 
	C609.934631,540.221436 604.581604,542.061401 598.464539,541.406128 
	C591.812683,540.693604 588.017944,536.841736 585.998901,530.309814 
M610.691895,533.478943 
	C618.762573,530.073547 621.700806,520.013184 617.750427,509.470337 
	C613.251770,511.161255 608.754211,512.852844 604.255859,514.542053 
	C602.365662,515.251831 600.559570,516.029419 599.696533,518.096069 
	C596.461121,525.843140 600.278076,535.824280 610.691895,533.478943 
z"/>
<path fill="#000000" opacity="1.000000" stroke="none" 
	d="
M797.244751,511.844849 
	C798.925415,515.643860 800.474670,519.088013 802.361084,523.281860 
	C807.246338,512.485474 811.316956,502.310272 814.845642,491.929382 
	C816.281799,487.704468 813.845886,485.760742 809.927490,485.098816 
	C808.483765,484.854919 806.567139,484.816498 806.776794,482.728729 
	C806.971313,480.791718 808.830261,480.779633 810.305115,480.763947 
	C815.803894,480.705414 821.303711,480.722443 826.803040,480.738739 
	C828.722412,480.744415 830.430298,481.155853 831.186646,483.895264 
	C819.920471,487.256165 818.882874,498.158386 814.863586,506.721436 
	C807.437683,522.542175 801.958984,539.220520 794.285828,554.952576 
	C792.386780,558.846069 790.275940,562.613525 787.217712,565.790039 
	C784.634216,568.473572 781.414612,569.691895 777.878235,570.047302 
	C772.595093,570.578308 768.536011,566.542236 768.688354,561.255249 
	C768.762634,558.678772 769.857178,556.818909 772.084106,555.564697 
	C774.408020,554.255920 776.209106,555.429077 778.019897,556.729431 
	C783.511353,560.672913 784.958008,560.370361 788.676758,554.884705 
	C794.045288,546.965271 796.147827,539.188110 791.253906,529.788025 
	C786.119812,519.926575 782.548096,509.261414 778.062622,499.048950 
	C775.186646,492.501221 773.497986,484.809570 764.201233,483.651550 
	C767.221008,480.332214 789.338928,479.486755 795.225159,481.830048 
	C795.483826,484.315491 793.418701,484.269928 791.949280,484.646332 
	C787.880981,485.688354 786.981567,488.139069 788.556396,491.785736 
	C791.395386,498.359558 794.259583,504.922546 797.244751,511.844849 
z"/>
<path fill="#000000" opacity="1.000000" stroke="none" 
	d="
M533.509766,510.508820 
	C534.788818,515.628906 536.641663,520.009155 539.827759,523.807922 
	C548.779846,534.481445 563.547729,533.655090 571.072937,522.010681 
	C571.948303,520.656067 572.475281,518.976135 574.046326,518.293030 
	C575.934509,518.690369 576.205505,519.814453 575.916565,521.312866 
	C574.217224,530.124329 565.038025,539.520935 556.295105,541.378296 
	C541.555420,544.509644 526.394653,534.909241 522.301575,519.852173 
	C516.733154,499.367889 528.606628,481.201111 548.829773,479.263092 
	C561.558533,478.043274 573.853149,488.075378 574.377869,499.895599 
	C574.553528,503.852631 573.479858,505.588013 569.143250,505.483124 
	C558.661194,505.229675 548.167236,505.511047 537.681213,505.361115 
	C534.085876,505.309723 532.767883,506.667969 533.509766,510.508820 
M534.766846,495.239288 
	C534.354431,496.808624 533.473450,498.315857 534.356384,500.804901 
	C541.690369,500.804901 549.274658,500.872864 556.856934,500.779968 
	C561.579041,500.722168 562.676025,498.980957 561.044678,494.461212 
	C559.097656,489.066589 555.592590,485.259674 549.695557,484.512695 
	C543.906250,483.779358 538.515137,487.658783 534.766846,495.239288 
z"/>
<path fill="#000000" opacity="1.000000" stroke="none" 
	d="
M746.873047,541.403320 
	C735.494629,541.199524 730.735596,536.402710 730.675415,525.387634 
	C730.618103,514.905151 730.660034,504.422089 730.650879,493.939301 
	C730.646057,488.424286 730.638855,488.424286 725.906738,486.012207 
	C725.989929,482.381927 729.204895,480.476685 730.791016,477.684052 
	C732.759521,474.218140 735.109924,470.971313 737.205933,467.574677 
	C738.183716,465.990112 739.365784,464.984436 741.274902,465.586761 
	C743.077087,466.155334 743.085571,467.790985 743.123230,469.293762 
	C743.185791,471.788452 743.271301,474.288391 743.177429,476.779724 
	C743.064880,479.766693 744.391785,481.026337 747.352905,480.908813 
	C750.010559,480.803345 752.676575,480.891968 755.338623,480.916962 
	C757.427795,480.936584 759.394531,481.001434 759.400208,483.974213 
	C759.405396,486.714355 757.890564,487.381348 755.572021,487.281799 
	C755.074097,487.260468 754.573853,487.286041 754.074829,487.297516 
	C742.658569,487.559937 743.080139,485.091217 743.131531,498.267395 
	C743.164001,506.583588 742.961060,514.911621 743.339600,523.212646 
	C743.775391,532.770386 749.775269,535.709290 757.872253,530.697937 
	C758.954956,530.027771 759.829773,528.796448 761.377930,529.196594 
	C762.773987,534.375427 755.557739,540.626221 746.873047,541.403320 
z"/>
</svg>