<svg version="1.2" xmlns="http://www.w3.org/2000/svg" viewBox="163 -204 1594.0000000000002 1240.0000000000005" width="1595" height="1241">
	<style>
		.s0 { opacity: .93;fill: #100f0f } 
		.s1 { fill: none } 
	</style>
	<g id="Layer 1">
		<path id="Path 0 copy" fill-rule="evenodd" class="s0" d="m389.76 206.73c-3 0.9-8.36 3.56-11.92 5.9-3.56 2.34-7.98 6.8-9.83 9.91-1.85 3.11-4.08 9.25-4.96 13.64-1.37 6.89-1.24 9.17 0.94 16.64 2 6.86 3.98 10.16 9.58 15.97 4.6 4.77 13.32 11.02 25.05 17.96 10.74 6.36 20.27 13.1 23.64 16.72 3.1 3.33 6.39 8.42 7.32 11.31 0.92 2.88 1.69 6.74 1.69 8.57 0.01 1.83-0.59 5.58-1.34 8.32-0.74 2.74-3.04 6.89-5.1 9.21-2.06 2.32-6.19 5.3-9.19 6.63-3.46 1.52-8.68 2.4-14.3 2.4-5.62 0-10.85-0.88-14.31-2.4-2.99-1.32-7.81-4.46-10.7-6.96-2.89-2.51-7.02-7.7-9.19-11.54-2.17-3.84-4.56-6.99-5.31-6.99-0.85 0-1.06 3.59-0.56 9.65 0.44 5.31 1.2 11.66 1.7 14.13 0.77 3.8 1.87 4.85 7.38 6.98 3.56 1.38 11.83 3.41 18.39 4.51 9.3 1.56 13.86 1.69 20.77 0.6 4.87-0.77 11.92-2.75 15.66-4.41 3.75-1.65 9.47-5.36 12.72-8.25 3.25-2.88 7.49-8.54 9.42-12.56 3.12-6.47 3.45-8.56 2.9-17.97-0.48-8.27-1.4-11.98-4.13-16.63-1.94-3.3-6.57-8.69-10.3-11.98-3.72-3.3-15.2-11.08-25.51-17.3-10.32-6.23-20.47-13.41-22.58-15.97-2.1-2.57-4.49-6.31-5.3-8.32-0.82-2.01-1.49-6.51-1.48-9.98 0-3.48 1.07-8.41 2.38-10.96 1.31-2.54 4.53-6.01 7.15-7.69 2.62-1.68 6.91-3.42 9.53-3.86 2.63-0.44 7.84-0.13 11.58 0.69 4.45 0.97 8.88 3.23 12.75 6.49 3.64 3.07 7.41 8.11 9.74 13 2.09 4.39 4.2 9.18 4.69 10.64 0.76 2.27 1.09 2.37 2.23 0.67 0.81-1.2 1-7.02 0.46-14.64-0.49-6.95-1.35-13.84-1.91-15.3-0.78-2.02-3.96-3.39-13.13-5.65-7.17-1.77-15.99-2.96-21.64-2.91-5.24 0.05-11.99 0.82-14.98 1.73zm669.55 4.5c-0.92 2.01-8.31 20.72-16.43 41.59-8.11 20.86-18.64 47.81-23.39 59.89-4.76 12.07-10.32 24.8-12.36 28.28-2.04 3.47-5.56 7.37-7.82 8.65-2.25 1.28-4.09 2.77-4.08 3.32 0.01 0.55 6.76 1 15 1 9.08 0 14.98-0.52 14.98-1.33 0-0.73-0.92-1.33-2.04-1.33-1.12 0-2.66-1.2-3.41-2.66-0.75-1.47-1.37-4.91-1.39-7.65-0.02-2.75 2.07-10.68 4.63-17.64 2.56-6.95 5.49-14.31 6.5-16.34q1.84-3.7 5.93-4.39c2.25-0.37 14.13-0.5 26.41-0.29l22.33 0.39c11.21 27.85 14.5 37.88 14.53 40.26 0.06 3.36-0.92 5.07-4.36 7.64l-4.42 3.31c32.19 0.03 41.8-0.42 42.12-0.97 0.32-0.55-1.21-1.74-3.41-2.66-2.23-0.93-5.44-4.14-7.3-7.32-1.83-3.11-5.14-10.44-7.35-16.3-2.21-5.86-13.35-34-24.76-62.55-11.41-28.55-21.28-52.95-21.94-54.23-0.66-1.29-2.35-2.33-3.75-2.33-1.47 0-3.26 1.55-4.22 3.66zm-12.53 51.21c5.75-14.84 10.84-26.52 11.32-25.95 0.48 0.56 2.42 5.21 4.3 10.34 1.89 5.12 6.83 18 10.99 28.61 4.16 10.61 7.28 19.75 6.93 20.3-0.34 0.55-10.76 0.84-45.7 0.33l0.86-3.33c0.48-1.83 5.56-15.46 11.3-30.3zm-578.7-52.54c-0.01 0.54 1.36 1.59 3.04 2.32 1.67 0.74 4.41 3.73 6.08 6.66 1.67 2.93 5.18 11.31 7.81 18.63 2.64 7.32 12.47 34.87 21.86 61.22 9.39 26.35 17.99 49.86 19.11 52.24 1.31 2.77 3.01 4.32 4.76 4.32 2.17 0 3.42-1.98 6.1-9.65 1.86-5.3 9.22-26.11 16.36-46.24 7.15-20.13 13.34-37.5 13.77-38.6 0.46-1.16 2.64 3.01 5.22 9.98 2.43 6.59 10.14 27.55 17.12 46.58 6.98 19.03 13.36 35.4 14.18 36.36 0.82 0.97 2.71 1.57 4.21 1.33 2.08-0.32 3.78-3.36 7.28-13.07 2.52-6.95 11.61-32.7 20.22-57.22 8.61-24.52 17.39-49.08 19.52-54.57 2.64-6.8 5.42-11.36 8.74-14.31 2.67-2.37 5.48-4.32 6.22-4.32 0.75 0 1.37-0.6 1.37-1.33 0-0.82-6.67-1.32-17.37-1.29-15.69 0.04-17.11 0.23-14.64 2.02 1.49 1.09 3.79 2.87 5.1 3.95 1.58 1.3 2.39 3.9 2.41 7.63 0.01 3.73-5.72 22.41-16.84 54.9-15.44 45.12-16.97 48.91-18.27 45.25-0.79-2.2-7.38-20.47-14.66-40.59-7.27-20.13-16.07-44.85-19.54-54.93l-6.31-18.33h-29.97c9.61 7.88 11.98 11.59 15.47 20.14 2.52 6.15 4.85 14.19 5.19 17.85 0.5 5.44-0.48 9.67-5.43 23.29-3.32 9.15-9.03 24.85-12.68 34.89-3.65 10.04-7.07 17.82-7.6 17.3-0.53-0.53-5.22-12.93-10.41-27.57-5.2-14.64-12.89-36.05-17.09-47.58-4.2-11.53-7.66-23.21-7.68-25.95-0.03-3.09 0.88-5.87 2.38-7.29 1.34-1.26 3.2-2.31 4.14-2.33 0.93-0.02 1.7-0.63 1.7-1.36 0-0.83-7.72-1.33-20.43-1.33-11.24 0-20.44 0.45-20.44 1zm270.39 0.98c1.5 1.13 3.19 2.04 3.75 2.03 0.56-0.01 1.94 1.78 3.07 3.97 1.72 3.37 2.04 13.24 2.04 63.22 0 53.66-0.23 59.68-2.39 64.1-1.31 2.68-3.78 5.52-5.48 6.32-1.71 0.79-3.09 1.89-3.07 2.44 0.02 0.55 13.99 1.01 31.03 1.02 17.04 0 34.36-0.61 38.48-1.38 4.12-0.76 10.87-2.89 14.99-4.74 4.12-1.85 9.23-4.98 11.36-6.95 2.13-1.97 5.19-5.98 6.79-8.91 2.33-4.24 2.93-7.63 2.94-16.63 0.02-9.8-0.46-12.12-3.54-17.3-1.96-3.3-5.64-7.7-8.17-9.78-2.54-2.09-7.37-4.95-10.75-6.36-3.37-1.41-7.05-2.58-8.17-2.59-1.12-0.02 1.02-1.59 4.77-3.49 3.74-1.9 8.86-5.01 11.36-6.92 2.5-1.91 6-6.47 7.79-10.13 1.78-3.66 3.62-9.05 4.09-11.97 0.6-3.76 0-7.68-2.04-13.31-1.58-4.39-4.86-9.96-7.27-12.38-2.42-2.41-7.77-5.99-11.89-7.95-7.49-3.56-7.49-3.56-44.95-3.96-33.99-0.37-37.21-0.22-34.74 1.65zm28.22 4.4l16.54 0.47c13.68 0.39 17.37 0.94 21.31 3.21 2.62 1.51 6.61 5.3 8.85 8.43 3.52 4.91 4.15 7.12 4.55 15.89 0.3 6.87-0.23 11.94-1.62 15.52-1.14 2.93-4.26 7.27-6.93 9.65-2.71 2.42-8.01 5.22-12 6.34-3.96 1.11-12.47 2-30.99 1.98l0.14-30.75zm-0.29 68.15h11.24c6.18-0.01 14.92 0.92 19.41 2.05 4.5 1.13 10.32 3.72 12.94 5.74 2.63 2.02 6.16 6.34 7.85 9.59 2.34 4.5 3.06 8.13 3.03 15.23-0.02 6.17-0.89 11.11-2.55 14.64-1.39 2.93-3.98 6.64-5.76 8.24-1.79 1.61-5.7 3.92-8.7 5.13-2.99 1.22-10.96 2.56-17.7 2.99-11.96 0.75-12.36 0.68-19.76-6.38v-28.61zm112.31-69.8l5.37 4.8c0.15 122.11 0.1 123.44-2.68 127.12-1.56 2.06-4.16 4.35-5.79 5.09-1.63 0.73-2.96 1.78-2.96 2.32 0 0.55 22.68 1 50.41 1 27.72 0 50.66-0.45 50.99-1 0.33-0.54 2.45-7.28 4.72-14.97 2.26-7.68 3.8-14.27 3.4-14.64-0.39-0.36-4.2 3.08-8.46 7.66-4.99 5.36-10.17 9.37-14.56 11.29-5.84 2.55-9.7 3.04-27.24 3.45-18.83 0.44-20.7 0.27-23.84-2.19l-3.4-2.67-0.69-54.8c37 0.62 39.77 0.99 43.16 3.39 2.11 1.51 5.07 5.23 6.56 8.27 1.5 3.05 3.19 5.56 3.75 5.59 0.56 0.03 1.02-8.93 1.02-19.91 0-12.42-0.51-19.97-1.36-19.97-0.75 0-2.6 2.25-4.11 4.99-1.51 2.75-4.73 6.18-7.15 7.64-3.82 2.29-6.86 2.64-22.79 2.66l-18.39 0.02c0-46.76 0.51-60.84 1.13-61.45 0.63-0.6 10.45-1.1 21.82-1.1 19.5 0 21.08 0.19 27.47 3.39 4.68 2.35 8.27 5.53 11.55 10.27 2.63 3.78 5.54 6.89 6.48 6.92 0.93 0.02 1.48-0.7 1.21-1.62-0.27-0.91-1.65-7.2-3.06-13.98l-2.58-12.32-95.35-0.05zm266.38-3.4c0 0.73 0.76 1.31 1.7 1.29 0.94-0.02 3.24 1.53 5.11 3.43l3.41 3.47c1.43 101.72 1.53 103.12 4.7 110.92q3.24 7.98 10.16 14.69c4.57 4.43 9.71 7.77 15.1 9.84 6.17 2.36 11.86 3.29 23.16 3.8 12.95 0.57 16.37 0.25 25.2-2.36 8.55-2.54 11.34-4.15 17.13-9.84 4.52-4.45 8.05-9.59 10.18-14.8 3.2-7.81 3.28-9.09 3.98-59.28 0.68-48.5 0.87-51.52 3.45-55.18 1.49-2.12 3.79-4.04 5.1-4.26 1.31-0.22 2.39-0.99 2.39-1.72 0-0.81-6.13-1.33-15.67-1.33-9.53 0-15.66 0.52-15.66 1.33 0 0.73 1.07 1.35 2.38 1.37 1.31 0.02 3.36 0.77 4.55 1.66 1.19 0.89 3.02 3.12 4.08 4.95 1.52 2.63 2.01 12.16 2.34 45.25 0.24 24.92-0.17 45.57-1.02 50.91-0.79 4.94-2.97 11.97-4.84 15.63-1.87 3.66-6.01 8.7-9.2 11.19-3.18 2.49-9.16 5.58-13.28 6.86-5.5 1.71-10.39 2.16-18.39 1.72-8.19-0.45-12.41-1.41-17.02-3.88-3.82-2.04-7.83-5.78-10.63-9.91-2.47-3.65-5.19-8.74-6.03-11.3-0.99-2.99-1.72-22.09-2.02-53.23-0.45-44.56-0.29-48.97 1.94-53.24 1.34-2.56 3.82-5.26 5.5-5.99 1.69-0.73 3.07-1.78 3.07-2.33 0-0.55-9.2-0.99-20.44-0.99-12.71 0-20.43 0.5-20.43 1.33zm155.99 10.98c-1.26 6.77-2.07 13.5-1.8 14.97 0.38 2.09 1.66 0.96 6-5.33 3.86-5.58 7.33-8.87 11.54-10.94 3.98-1.95 10.09-3.31 17.96-3.99l11.93-1.04c-0.05 111.06-0.47 127.25-1.76 129.76-0.94 1.83-3.68 4.23-6.1 5.33-2.41 1.1-3.94 2.46-3.38 3.03 0.55 0.57 10.35 1.02 21.78 1 12.91-0.03 20.77-0.54 20.77-1.37 0-0.73-1.84-1.93-4.09-2.66q-4.08-1.33-6.13-5.99c-1.71-3.92-2.04-14.54-2.05-66.88v-62.22c21.65 1.36 30.08 2.65 32.7 3.75 2.63 1.1 6.36 3.4 8.3 5.12 1.93 1.71 5.3 5.69 7.49 8.83 2.18 3.15 4.27 5.12 4.65 4.38 0.37-0.73 0.25-4.2-0.28-7.71-0.52-3.51-1.44-9.53-2.04-13.38l-1.09-7.01-112.1 0.04zm128.7-11.65c0 0.37 1.84 1.56 4.09 2.66 2.24 1.1 5.35 3.35 6.89 4.99 1.55 1.65 7.18 10.48 12.53 19.63 5.34 9.15 14.25 24.13 19.8 33.27 5.55 9.15 10.96 18.74 12.03 21.3 1.41 3.4 1.93 10.66 1.9 26.95-0.01 12.26-0.64 23.79-1.39 25.62-0.75 1.83-3.2 4.37-5.44 5.65-2.24 1.29-4.08 2.78-4.09 3.33 0 0.55 9.34 0.98 20.77 0.96l20.77-0.04c-6.18-4.58-8.78-7.86-9.78-10.23-1.25-3.01-1.8-11.25-1.8-26.95v-22.63c13.45-25.27 23-42.19 29.9-53.9 6.89-11.71 13.87-22.66 15.5-24.34 1.63-1.67 4.03-3.31 5.34-3.65 1.31-0.35 2.39-1.22 2.39-1.95 0-0.81-5.91-1.34-14.99-1.34-9.08 0-14.98 0.53-14.98 1.34 0 0.73 0.61 1.33 1.36 1.33 0.75 0 2.37 1.64 3.61 3.66 1.9 3.08 2 4.55 0.68 9.31-0.86 3.11-7.76 16.59-15.34 29.95-7.57 13.36-14.47 25.05-15.32 26-1.21 1.32-4.81-3.87-16.15-23.3-8.03-13.74-16-28.19-17.71-32.1l-3.11-7.11c6.86-6 8.85-8.04 8.85-8.41 0-0.37-10.42-0.67-23.15-0.67-12.74 0-23.16 0.3-23.16 0.67zm-766.91 195.14c-28.09 0.46-56.9 1.24-64.02 1.74-7.11 0.51-18.15 1.8-24.52 2.88-6.36 1.08-14.95 3.17-19.07 4.65-4.12 1.48-10.09 3.86-13.28 5.28-3.18 1.42-5.79 3.48-5.79 4.58 0 1.23 0.91 1.78 2.39 1.42 1.31-0.32 5.14-1.57 8.51-2.79 3.37-1.21 10.11-3.07 14.98-4.12 4.87-1.05 19.89-2.77 33.38-3.83 13.48-1.05 31.41-1.93 39.84-1.95l15.33-0.04c-11.09 14.29-20.47 28.22-28.01 40.16-7.53 11.95-16.66 26.51-20.29 32.37-3.63 5.86-11.33 18.43-17.12 27.95-5.79 9.51-13.67 22.54-17.51 28.95-3.84 6.4-6.98 11.94-6.98 12.31 0 0.36 1.07 0.69 2.39 0.72 1.46 0.04 4.55-3.18 7.99-8.31 3.08-4.61 8.87-13.77 12.87-20.36 4-6.59 17.62-28.15 30.27-47.91 12.65-19.77 27.24-41.78 32.42-48.91 5.18-7.14 10.79-13.89 12.48-15 1.68-1.11 5.52-2.28 8.51-2.61 3-0.32 19.55-1 36.78-1.5 17.23-0.5 32.71-1.42 34.4-2.05 1.68-0.62 2.95-2.07 2.82-3.22-0.2-1.77-2.31-2.02-13.96-1.66-7.55 0.23-36.71 0.79-64.81 1.25zm335 5.01c-3.32 2.13-11.49 9.47-18.17 16.32-6.67 6.84-17 19.03-22.95 27.08-5.94 8.05-13.3 18.83-16.33 23.96-3.04 5.12-7.75 11.71-10.47 14.63-2.72 2.93-8.63 10.42-13.15 16.64-4.51 6.22-11.3 16.7-15.1 23.29-3.79 6.59-11.2 20.36-16.45 30.61-5.25 10.25-11.22 22.53-13.26 27.28-2.32 5.4-3.15 8.78-2.21 8.99 0.83 0.18 1.51 1.53 1.51 2.99 0 1.47 0.46 2.64 1.02 2.62 0.56-0.03 2.38-0.78 4.03-1.67 1.66-0.89 6.25-6.47 10.22-12.4 3.96-5.93 9.02-13.71 11.23-17.3 2.22-3.58 7.02-11.61 10.67-17.83 3.66-6.22 9.35-16.55 12.66-22.96 3.54-6.85 6.86-11.64 8.06-11.64 1.12 0 8.33-2.41 16.01-5.36 7.67-2.95 16.26-6.84 19.07-8.65 2.81-1.81 5.37-3.14 5.7-2.96 0.32 0.18-0.38 3.33-1.57 6.99-1.49 4.58-1.78 7.67-0.94 9.92 0.68 1.8 2.87 4.2 4.86 5.33 3.15 1.77 4.42 1.81 9.54 0.25 4.01-1.21 7.99-3.99 12.41-8.65 3.57-3.77 6.79-7.9 7.15-9.18 0.52-1.89 1.62-2.18 5.75-1.53 3.22 0.5 6.88 0.06 9.88-1.19 2.62-1.1 8.68-4.9 13.46-8.46 4.78-3.55 10.3-7.5 12.26-8.78 1.96-1.28 4.03-2.32 4.59-2.33 0.56 0 0.66 1.64 0.23 3.66-0.44 2.01-2.99 8.15-5.66 13.64-2.68 5.49-5.15 12.07-5.48 14.64-0.46 3.56 0.09 5.28 2.36 7.32 2.37 2.12 4.1 2.5 8.65 1.85 3.13-0.44 9.67-2.65 14.54-4.9 4.87-2.26 13.91-8.03 20.09-12.84 6.19-4.8 11.24-9.33 11.24-10.07 0-0.73-0.76-1.11-1.7-0.84-0.94 0.26-8.45 4.8-16.69 10.07-9.06 5.8-17.94 10.38-22.47 11.6-5.28 1.41-7.9 1.58-8.86 0.59q-1.36-1.42 0.28-4.43c0.91-1.66 2.59-5.11 3.75-7.67 1.16-2.56 3.98-7.95 6.27-11.98 2.29-4.02 5.35-10.31 6.81-13.97 1.45-3.66 2.66-7.85 2.69-9.32 0.02-1.46-1.05-3.76-2.39-5.1-1.69-1.7-3.55-2.2-6.17-1.66-2.51 0.52-6.15 3.75-11 9.76-3.99 4.94-9.97 11.26-13.28 14.04-3.32 2.79-9.25 6.53-13.18 8.32-6.36 2.89-7.38 3.03-9.19 1.26-1.13-1.1-2.05-4.09-2.05-6.65 0-3.26-1.23-6.07-4.08-9.32-2.65-3.02-5.29-4.66-7.5-4.66-2.09 0-5.89 2.19-9.87 5.71-3.56 3.14-8.92 7.54-11.92 9.77-3 2.24-9.43 6.2-14.3 8.8-4.87 2.6-12.68 6.14-17.36 7.86-4.68 1.72-8.82 2.68-9.2 2.13-0.38-0.55 1.34-5.34 3.81-10.65 3.33-7.12 6.26-11.1 11.24-15.2 3.71-3.06 12.26-10.01 19-15.46 6.74-5.44 17.74-15.52 24.43-22.39 6.7-6.87 14.53-16.08 17.4-20.48 2.88-4.39 5.66-9.98 6.17-12.43 0.73-3.49 0.35-4.97-1.74-6.85-1.47-1.32-3.94-2.76-5.49-3.21-1.87-0.54-4.86 0.49-8.86 3.05zm2.82 5.64c2.63-1.55 5.23-2.82 5.79-2.83 0.57 0 1.03 1.35 1.04 2.99 0.02 1.65-1.74 5.69-3.89 8.99-2.15 3.29-6.6 9.32-9.89 13.39-3.29 4.07-10.28 11.27-15.52 16-5.25 4.74-13.98 12.34-19.41 16.89-5.43 4.55-9.89 7.53-9.9 6.62-0.01-0.92 1.92-4.66 4.29-8.32 2.37-3.66 8.66-12.34 13.98-19.3 5.32-6.95 13.97-16.91 19.21-22.12 5.25-5.21 11.68-10.75 14.3-12.31zm49.68 61.51c1.96-2.45 4.07-4.45 4.68-4.45 0.61 0 0.8 1.34 0.42 2.99-0.37 1.65-1.51 4.34-2.53 5.99-1.01 1.65-2.76 3-3.89 3-1.12 0-2.09-0.7-2.15-1.54-0.05-0.85 1.51-3.54 3.47-5.99zm-59.5 14c2.46-2.1 5.11-3.81 5.89-3.81 0.78 0 1.66 1.64 1.94 3.66 0.29 2.01 0.03 5.45-0.58 7.65-0.61 2.2-2.07 5.79-3.24 7.98-1.17 2.2-4.48 6.18-7.35 8.84-2.88 2.67-6.45 5.24-7.95 5.71-1.7 0.54-3.37 0.09-4.43-1.18-0.93-1.13-1.42-3.4-1.09-5.05 0.34-1.64 3.25-6.82 6.47-11.49 3.22-4.68 7.88-10.22 10.34-12.31zm-67.11 17.48c1.14-2.2 2.59-3.99 3.22-3.99 0.63 0-0.15 2.44-1.73 5.43-1.58 2.99-3.03 4.79-3.22 3.99-0.19-0.79 0.59-3.23 1.73-5.43zm-8.36 14.31c1.89-2.02 3.68-3.66 3.99-3.66 0.3 0-0.29 2.09-1.3 4.66-1.02 2.56-4.68 9.89-8.15 16.3-3.46 6.4-10.97 19.65-16.68 29.44-5.72 9.79-11.19 18.48-12.16 19.3-1.32 1.12-1.75 1.08-1.7-0.16 0.03-0.92 4.24-9.9 9.35-19.97 5.1-10.06 12.41-23.69 16.24-30.27 3.83-6.59 8.52-13.63 10.41-15.64zm-253.89-56.9c-1.5 1.47-2.72 3.86-2.72 5.33 0 1.95 0.91 2.66 3.4 2.66 2.18 0 4.14-1.2 5.45-3.33 1.13-1.83 1.74-4.22 1.36-5.32-0.37-1.1-1.6-2-2.72-2-1.12 0-3.27 1.2-4.77 2.66zm-6.56 14.28c-0.91 0.33-4.31 4.29-7.57 8.8-3.25 4.51-6.93 11.19-8.17 14.85-1.23 3.66-2.24 8.9-2.23 11.65 0.01 3.68 0.82 5.51 3.08 7 1.68 1.1 4.6 1.99 6.47 1.97 1.87-0.01 6.16-0.98 9.53-2.14 3.38-1.16 8.89-3.97 12.26-6.26 3.37-2.28 11.29-8.96 17.58-14.84 10.52-9.81 11.39-10.36 10.68-6.69-0.42 2.19-3.2 9.08-6.17 15.3-2.96 6.22-5.18 11.91-4.92 12.64 0.26 0.74 1.72 1.78 3.23 2.33 2.27 0.82 3.55-0.13 7.18-5.32 2.42-3.48 7.79-9.64 11.91-13.69 4.13-4.05 10.57-9.3 14.32-11.67 3.75-2.37 7.73-4.3 8.85-4.3 1.64 0.02 1.9 1.28 1.29 6.35-0.42 3.49-2.56 10.43-4.77 15.42-3.45 7.81-3.72 9.25-1.97 10.29 1.13 0.67 2.66 1.24 3.41 1.27 0.75 0.02 4.53-4.01 8.39-8.97 3.87-4.95 10.15-11.85 13.97-15.33 3.81-3.47 7.54-6.32 8.29-6.32 0.75 0 1.62 0.75 1.93 1.66 0.32 0.92 0.24 5.86-0.18 10.98-0.58 7.13-0.24 10.34 1.47 13.64 1.98 3.86 2.86 4.33 8.02 4.35 4.51 0.01 7.96-1.31 15.66-5.99 8.61-5.24 9.98-5.71 10.67-3.68 0.44 1.28 1.35 3.68 2.04 5.32 0.69 1.65 3.25 3.97 5.68 5.15 3.34 1.62 6.27 1.92 11.92 1.23 4.12-0.51 10.25-1.82 13.62-2.91 3.37-1.1 9.5-3.88 13.62-6.18 4.12-2.31 9.82-6.31 12.67-8.89 2.84-2.58 5.14-5.45 5.1-6.36-0.03-0.92-0.36-1.67-0.74-1.67-0.37 0-3.9 2.38-7.83 5.29-3.93 2.91-11.14 7.19-16.01 9.5-4.87 2.31-12.22 4.6-16.34 5.08-4.12 0.48-9.03 0.52-10.9 0.1-1.99-0.46-3.56-1.86-3.78-3.38-0.29-2.01 1.6-3.6 8.17-6.9 4.7-2.35 11.78-7.44 15.74-11.31 3.95-3.86 7.16-7.77 7.15-8.69-0.02-0.91-0.57-2.71-1.22-3.99-0.65-1.28-2.8-2.78-4.77-3.33-2.19-0.61-5.3-0.3-8.01 0.79-2.43 0.99-8.1 5.24-12.6 9.45-4.49 4.21-12.16 10.67-17.03 14.35-4.87 3.68-11.15 7.81-13.96 9.18-2.81 1.37-6.33 2.5-7.83 2.5-2.55 0-2.72-0.88-2.68-13.64 0.04-11.38-0.36-14.03-2.38-15.94-1.34-1.26-3.51-2.31-4.82-2.33-1.31-0.02-4.07 0.81-6.13 1.85-2.06 1.04-6.19 4.34-9.19 7.34-3 3-5.91 5.45-6.47 5.44-0.56-0.02-0.65-1.67-0.19-3.68 0.45-2.02 0.45-5.01 0-6.66-0.46-1.65-2.67-3.89-4.92-4.99-3.76-1.84-4.55-1.77-9.88 0.81-3.18 1.54-9.31 5.43-13.62 8.65-4.31 3.21-8.1 5.7-8.44 5.51-0.34-0.18 0.43-3.13 1.7-6.55 2.24-6.01 2.23-6.3-0.41-9.02-1.5-1.55-3.18-2.79-3.74-2.77-0.57 0.02-6.39 5.01-12.95 11.08-6.55 6.07-16.21 13.79-21.45 17.16-5.24 3.37-12.14 6.94-15.32 7.93q-5.8 1.8-7.16 0.47-1.38-1.32 0.22-5.99c0.88-2.56 4.64-10.04 8.37-16.63 5.05-8.91 6.46-12.53 5.49-14.12-0.71-1.18-2.03-1.87-2.93-1.55zm161.62 16c5.22-4.94 10.48-8.98 11.67-8.98 1.2 0 2.19 0.45 2.2 0.99 0.02 0.55-2.28 3.16-5.1 5.79-2.83 2.64-7.43 6.38-10.24 8.32-2.81 1.94-5.77 3.38-6.57 3.2-0.81-0.19 2.81-4.38 8.04-9.32zm421.38-10.31c-3.13 2.19-6.3 5.19-7.05 6.65-0.75 1.46-5.5 5.88-10.56 9.82-5.05 3.93-15.63 11.42-23.49 16.63-7.87 5.21-14.46 9.18-14.65 8.82-0.18-0.37 0.83-2.31 2.26-4.33 1.43-2.01 4.15-8.15 6.03-13.64 1.88-5.49 3.83-12.08 4.32-14.64 0.71-3.72 0.31-5.19-1.98-7.32l-2.87-2.66c-8.91 8.59-13.34 12.64-15.59 14.54-2.25 1.91-9.6 7.34-16.34 12.07-6.75 4.73-13.64 8.62-15.33 8.63l-3.06 0.03c4.86-9.8 8.23-16.39 10.62-20.96 2.4-4.58 4.36-8.92 4.36-9.65 0-0.73-1.07-1.63-2.38-2-1.31-0.37-3-0.15-3.75 0.49-0.75 0.65-4 6.19-7.23 12.32-3.23 6.13-6.24 13.54-6.69 16.47-0.72 4.72-0.4 5.59 2.81 7.65 2.2 1.42 4.82 2.02 6.68 1.52 1.69-0.44 8.89-4.6 16.01-9.23 7.12-4.63 15.81-11.16 19.31-14.5 3.5-3.33 6.72-6.07 7.15-6.07 0.43 0-1 4.64-3.17 10.32-2.18 5.67-5.87 14.2-8.22 18.96-3.91 7.93-5.53 9.58-19.54 19.77-8.41 6.12-20.43 15.4-26.72 20.63-6.29 5.23-16.35 14.6-22.36 20.82-6 6.22-13.91 15.21-17.57 19.97-3.66 4.75-7.85 11.79-9.31 15.63-2.28 5.98-2.41 7.52-0.92 10.65 1.53 3.2 2.51 3.66 7.83 3.63 4.57-0.02 7.96-1.18 13.58-4.65 4.12-2.54 12.71-9.16 19.07-14.7 6.37-5.55 15.95-15.44 21.28-21.97 5.34-6.54 13.52-17.57 18.19-24.53 4.67-6.95 10.88-17.28 13.8-22.96 2.92-5.67 6.69-11.26 8.37-12.41 1.69-1.16 8-5.2 14.04-8.99 6.03-3.78 13.32-8.67 16.19-10.87 2.88-2.2 6.37-5.04 7.76-6.32 1.4-1.28 2.81-1.88 3.16-1.33 0.34 0.55-0.01 2.49-0.76 4.32-0.76 1.83-0.99 4.83-0.52 6.66 0.48 1.83 1.89 4.39 3.15 5.7 1.25 1.3 4.11 2.35 6.36 2.32 2.25-0.03 6.23-1.32 8.85-2.87 2.63-1.55 7.09-5.29 9.93-8.31 2.84-3.02 5.44-6.54 5.79-7.82 0.55-2.05 1.11-2.13 4.58-0.67 3.52 1.49 4.7 1.27 10.9-1.99 3.82-2.02 7.25-3.66 7.63-3.66 0.37 0-0.53 2.54-2.02 5.65-1.48 3.11-2.7 7.61-2.72 9.98-0.02 3.22 0.85 4.84 3.37 6.33 3.14 1.83 3.98 1.73 10.56-1.34 3.93-1.83 9.76-5.13 12.94-7.32 3.19-2.19 5.79-4.59 5.79-5.32 0-0.73 0.92-1.63 2.04-1.99 1.82-0.6 1.82-0.08 0 4.65-1.35 3.54-1.64 6.33-0.85 8.32 0.65 1.65 2.25 3.89 3.56 4.99 1.82 1.53 4.03 1.77 9.37 1.03 3.85-0.54 10.98-2.93 15.85-5.32 5.2-2.55 12.51-7.85 17.71-12.83 5.02-4.81 8.11-8.7 7.15-8.99-0.94-0.28-6.15 2.73-11.58 6.68-5.43 3.95-13.09 8.74-17.03 10.64-3.93 1.91-9.14 3.72-11.58 4.03-2.43 0.31-5.2 0.16-6.14-0.33-1.37-0.72-1.34-1.97 0.17-6.22 1.03-2.93 4.11-9.37 6.82-14.31 2.72-4.94 4.94-9.88 4.94-10.98 0-1.09-0.92-2.29-2.04-2.66-1.2-0.39-3.54 1.11-5.7 3.66-2.01 2.38-7.07 7.5-11.24 11.38-4.17 3.87-11.76 9.86-16.88 13.3-7.31 4.93-9.63 5.91-10.89 4.61-1.24-1.27-0.37-3.98 3.85-11.94 2.99-5.65 6.82-11.95 8.51-13.98 1.68-2.04 2.91-4.7 2.72-5.92-0.18-1.22-0.95-2.43-1.7-2.7-0.75-0.26-5.35 2.63-10.22 6.42-4.87 3.8-11.61 8.08-14.98 9.51-5.97 2.54-6.17 2.54-7.79 0.12-0.92-1.36-1.3-3.08-0.86-3.81 0.44-0.73 0.42-2.68-0.04-4.33-0.47-1.64-2.38-4.79-4.25-6.98-2.31-2.71-4.64-4-7.25-4-2.12 0-6.41 1.8-9.54 4zm12.68 2.52l0.4 5.06c0.22 2.78-0.7 7.7-2.03 10.93-1.37 3.31-5.26 8.4-8.9 11.65-3.56 3.17-7.7 5.77-9.2 5.77-1.5 0-3.09-0.75-3.54-1.66-0.44-0.92 0.67-4.96 2.49-8.99 1.81-4.02 5.39-9.66 7.96-12.53 2.57-2.87 6.5-6.34 8.74-7.72zm-94.82 63.54c5.52-4.13 10.26-7.51 10.52-7.51 0.27 0-1.75 4.04-4.48 8.99-2.74 4.94-8.7 14.33-13.25 20.86-4.55 6.54-12.86 17.02-18.47 23.29-5.6 6.28-13.26 14.3-17.02 17.83-3.76 3.54-10.06 8.48-13.99 10.98-3.93 2.51-9.01 5.01-11.27 5.56-3.84 0.93-4.12 0.74-4.09-2.66 0.02-2.02 1.03-5.61 2.25-7.99 1.22-2.38 5.14-8.22 8.72-12.98 3.58-4.75 12.55-14.34 19.92-21.29 7.38-6.95 17.4-16 22.27-20.11 4.87-4.1 13.37-10.84 18.89-14.97z"/>
		<path id="Shape 1" fill-rule="evenodd" class="s1" d="m1778-211v1271h-1637v-1271z"/>
		<path id="Shape 2" fill-rule="evenodd" class="s1" d="m161-410v1h-9v-1z"/>
	</g>
</svg>