<svg width="607" height="116" viewBox="0 0 607 116" fill="none" xmlns="http://www.w3.org/2000/svg">
<path d="M33.308 90.488C28.5133 90.488 24.256 89.992 20.536 89C16.816 87.9253 13.592 86.4787 10.864 84.66C8.136 82.7587 5.904 80.692 4.168 78.46C2.432 76.1453 1.15067 73.7067 0.324 71.144L10.368 67.672C11.608 71.3093 14.088 74.492 17.808 77.22C21.6107 79.8653 26.24 81.188 31.696 81.188C38.392 81.188 43.6413 79.8653 47.444 77.22C51.2467 74.5747 53.148 71.0613 53.148 66.68C53.148 62.6293 51.4533 59.364 48.064 56.884C44.6747 54.3213 40.2107 52.3373 34.672 50.932L25.124 48.452C21.2387 47.46 17.6427 46.0133 14.336 44.112C11.112 42.128 8.508 39.648 6.524 36.672C4.62267 33.6133 3.672 29.976 3.672 25.76C3.672 17.9067 6.19333 11.7893 11.236 7.40799C16.3613 2.944 23.7187 0.711998 33.308 0.711998C39.012 0.711998 43.9307 1.66267 48.064 3.564C52.1973 5.38266 55.5453 7.73866 58.108 10.632C60.7533 13.4427 62.6133 16.5013 63.688 19.808L53.768 23.28C52.1973 19.1467 49.552 15.9227 45.832 13.608C42.112 11.2107 37.6067 10.012 32.316 10.012C26.7773 10.012 22.3547 11.376 19.048 14.104C15.824 16.7493 14.212 20.3867 14.212 25.016C14.212 28.984 15.4933 32.0427 18.056 34.192C20.6187 36.2587 23.9667 37.788 28.1 38.78L37.648 41.136C46.08 43.12 52.528 46.4267 56.992 51.056C61.5387 55.6027 63.812 60.5213 63.812 65.812C63.812 70.3587 62.6547 74.5333 60.34 78.336C58.0253 82.056 54.5947 85.032 50.048 87.264C45.584 89.4133 40.004 90.488 33.308 90.488ZM150.644 89L177.428 2.19999H187.968L161.06 89H150.644ZM97.82 89L71.284 2.19999H81.824L108.112 89H97.82ZM98.936 89L124.48 2.19999H134.524L108.98 89H98.936ZM149.776 89L124.852 2.19999H134.896L160.192 89H149.776ZM231.372 89V2.19999H258.776C264.728 2.19999 269.812 3.10933 274.028 4.928C278.244 6.74666 281.509 9.43333 283.824 12.988C286.139 16.46 287.296 20.7173 287.296 25.76C287.296 29.976 286.345 33.696 284.444 36.92C282.543 40.0613 279.856 42.624 276.384 44.608C280.683 46.6747 283.989 49.444 286.304 52.916C288.701 56.388 289.9 60.5213 289.9 65.316C289.9 70.3587 288.784 74.6573 286.552 78.212C284.32 81.684 281.137 84.3707 277.004 86.272C272.953 88.0907 268.076 89 262.372 89H231.372ZM241.788 79.576H261.876C267.332 79.576 271.589 78.2947 274.648 75.732C277.789 73.0867 279.36 69.4907 279.36 64.944C279.36 60.0667 277.583 56.264 274.028 53.536C270.473 50.7253 265.513 49.32 259.148 49.32H241.788V79.576ZM241.788 40.268H261.38C266.175 40.268 269.936 38.9867 272.664 36.424C275.392 33.8613 276.756 30.3067 276.756 25.76C276.756 21.048 275.144 17.452 271.92 14.972C268.779 12.4093 264.315 11.128 258.528 11.128H241.788V40.268ZM331.481 90.488C325.446 90.488 320.114 89.124 315.485 86.396C310.855 83.5853 307.218 79.7413 304.573 74.864C302.01 69.9867 300.729 64.3653 300.729 58C300.729 51.6347 302.01 46.0133 304.573 41.136C307.218 36.2587 310.814 32.456 315.361 29.728C319.99 26.9173 325.281 25.512 331.233 25.512C337.019 25.512 342.021 26.9587 346.237 29.852C350.453 32.6627 353.718 36.6307 356.033 41.756C358.347 46.8813 359.505 52.916 359.505 59.86H308.293L310.773 57.752C310.773 62.712 311.641 66.9693 313.377 70.524C315.195 74.0787 317.717 76.8067 320.941 78.708C324.165 80.5267 327.843 81.436 331.977 81.436C336.358 81.436 340.037 80.4027 343.013 78.336C346.071 76.2693 348.427 73.5413 350.081 70.152L358.637 74.492C357.066 77.716 354.958 80.5267 352.313 82.924C349.75 85.3213 346.691 87.1813 343.137 88.504C339.665 89.8267 335.779 90.488 331.481 90.488ZM311.393 53.536L308.789 51.552H351.569L348.965 53.66C348.965 49.692 348.179 46.2613 346.609 43.368C345.038 40.4747 342.93 38.2427 340.285 36.672C337.639 35.1013 334.581 34.316 331.109 34.316C327.719 34.316 324.495 35.1013 321.437 36.672C318.461 38.2427 316.022 40.4747 314.121 43.368C312.302 46.1787 311.393 49.568 311.393 53.536ZM410.208 89L409.712 78.832V56.264C409.712 51.3867 409.175 47.3773 408.1 44.236C407.025 41.012 405.331 38.5733 403.016 36.92C400.701 35.2667 397.684 34.44 393.964 34.44C390.575 34.44 387.64 35.1427 385.16 36.548C382.763 37.8707 380.779 40.02 379.208 42.996L370.28 39.524C371.851 36.6307 373.752 34.1507 375.984 32.084C378.216 29.9347 380.82 28.3227 383.796 27.248C386.772 26.0907 390.161 25.512 393.964 25.512C399.751 25.512 404.504 26.6693 408.224 28.984C412.027 31.216 414.879 34.564 416.78 39.028C418.681 43.4093 419.591 48.8653 419.508 55.396L419.384 89H410.208ZM391.608 90.488C384.333 90.488 378.629 88.8347 374.496 85.528C370.445 82.1387 368.42 77.468 368.42 71.516C368.42 65.2333 370.487 60.4387 374.62 57.132C378.836 53.7427 384.705 52.048 392.228 52.048H409.96V60.356H394.46C388.673 60.356 384.54 61.3067 382.06 63.208C379.663 65.1093 378.464 67.8373 378.464 71.392C378.464 74.616 379.663 77.1787 382.06 79.08C384.457 80.8987 387.805 81.808 392.104 81.808C395.659 81.808 398.759 81.064 401.404 79.576C404.049 78.0053 406.075 75.8147 407.48 73.004C408.968 70.1107 409.712 66.7213 409.712 62.836H413.928C413.928 71.268 412.027 78.0053 408.224 83.048C404.421 88.008 398.883 90.488 391.608 90.488ZM477.759 89L477.139 77.592V27H487.059V89H477.759ZM433.615 58.744V27H443.535V58.744H433.615ZM443.535 58.744C443.535 64.8613 444.238 69.532 445.643 72.756C447.048 75.98 448.991 78.212 451.471 79.452C454.034 80.6093 456.886 81.188 460.027 81.188C465.4 81.188 469.575 79.2453 472.551 75.36C475.61 71.4747 477.139 66.06 477.139 59.116H481.975C481.975 65.6467 481.024 71.268 479.123 75.98C477.222 80.692 474.452 84.288 470.815 86.768C467.26 89.248 462.879 90.488 457.671 90.488C452.876 90.488 448.66 89.5373 445.023 87.636C441.386 85.652 438.575 82.552 436.591 78.336C434.607 74.0373 433.615 68.4987 433.615 61.72V58.744H443.535ZM527.683 90.488C521.649 90.488 516.978 88.9173 513.671 85.776C510.365 82.6347 508.711 78.212 508.711 72.508V7.656H518.631V71.516C518.631 74.6573 519.458 77.096 521.111 78.832C522.847 80.4853 525.245 81.312 528.303 81.312C529.295 81.312 530.246 81.188 531.155 80.94C532.147 80.6093 533.429 79.8653 534.999 78.708L538.843 86.768C536.694 88.1733 534.751 89.124 533.015 89.62C531.279 90.1987 529.502 90.488 527.683 90.488ZM497.923 35.804V27H537.231V35.804H497.923ZM556.815 115.288C555.244 115.288 553.425 114.957 551.359 114.296C549.292 113.717 547.101 112.932 544.787 111.94L548.507 103.632C550.408 104.459 552.061 105.079 553.467 105.492C554.955 105.905 556.112 106.112 556.939 106.112C559.171 106.112 560.989 105.492 562.395 104.252C563.883 103.095 565.123 101.4 566.115 99.168L573.183 82.304L596.123 27H606.787L577.027 97.68C575.456 101.317 573.803 104.459 572.067 107.104C570.413 109.749 568.388 111.775 565.991 113.18C563.593 114.585 560.535 115.288 556.815 115.288ZM570.455 89L543.671 27H554.211L577.275 82.18L580.251 89H570.455Z" fill="black"/>
</svg>
