<svg version="1.1" id="Layer_1" xmlns="http://www.w3.org/2000/svg" xmlns:xlink="http://www.w3.org/1999/xlink" x="0px" y="0px" width="100%" viewBox="0 0 1024 1024" enable-background="new 0 0 1024 1024" xml:space="preserve">
  <path fill="#000000" opacity="1.000000" stroke="none" d="
M491.945251,485.838928 
	C484.716034,464.517273 477.561615,443.585968 469.783264,422.871277 
	C465.464813,411.370789 457.916443,403.305298 445.921356,399.963074 
	C442.551636,399.024139 441.145935,397.352448 441.742157,393.925873 
	C442.316223,390.626526 444.530975,389.680389 447.515533,389.681976 
	C471.006561,389.694427 494.497559,389.698914 517.988586,389.697449 
	C520.301636,389.697296 522.485718,389.833710 522.294006,393.021912 
	C522.135437,395.656982 523.420715,398.936920 519.180298,399.752167 
	C517.227722,400.127472 515.302979,400.689758 513.402222,401.284546 
	C504.115265,404.190582 501.492767,408.775360 503.869171,418.327240 
	C506.526184,429.006866 510.848236,439.133942 514.602905,449.438721 
	C527.699646,485.383331 540.978516,521.261597 554.202271,557.159912 
	C554.996582,559.316284 555.912537,561.427795 557.326782,564.936951 
	C560.687927,556.318115 563.692810,548.869812 566.506592,541.350037 
	C575.312683,517.816345 584.057434,494.258209 594.180847,471.248352 
	C595.333374,468.628906 595.576111,466.360321 594.595886,463.642303 
	C590.138245,451.282379 585.773315,438.887634 581.518433,426.456329 
	C577.097107,413.538666 569.235779,404.015350 555.728760,400.129425 
	C551.403076,398.884949 551.878601,395.780731 552.031189,392.614929 
	C552.209961,388.902802 555.101074,389.689301 557.238525,389.729065 
	C579.215576,390.137268 601.191833,390.402771 623.165894,389.669708 
	C626.784302,389.549011 629.340698,390.513519 630.081909,394.457581 
	C630.869446,398.648499 627.916138,399.393982 624.978821,400.395233 
	C612.647888,404.598358 609.844666,409.401215 614.004578,421.918152 
	C620.242859,440.688843 627.018311,459.286194 633.834900,477.858368 
	C644.151428,505.966492 654.702942,533.988342 665.140686,562.052002 
	C665.712646,563.589966 665.958984,565.278320 667.615479,566.604919 
	C671.457642,560.976074 673.197632,554.499756 675.387329,548.329712 
	C689.296936,509.135498 702.988892,469.863861 716.661133,430.585938 
	C717.911316,426.994385 718.712280,423.213776 719.386169,419.460663 
	C721.065735,410.106049 717.181763,404.000336 708.000122,401.335358 
	C705.609436,400.641418 703.175598,399.900665 700.716858,399.679901 
	C696.441284,399.295898 696.959412,396.376465 696.911804,393.506104 
	C696.851562,389.870697 699.121948,389.599213 701.885193,389.677582 
	C721.041870,390.221008 740.201050,390.205566 759.355896,389.657379 
	C763.471130,389.539551 765.631714,391.048950 765.816040,395.284119 
	C765.916504,397.591919 765.366333,399.018066 762.822021,399.575104 
	C748.630493,402.681824 741.120667,412.373505 736.423645,425.486328 
	C718.921631,474.347168 701.153870,523.113037 683.405457,571.885254 
	C677.546509,587.985535 671.269226,603.935364 665.563721,620.088440 
	C663.936340,624.695496 660.829651,624.169922 657.319336,624.423462 
	C653.496643,624.699646 652.114258,622.733887 650.960083,619.573730 
	C635.105408,576.161499 619.166016,532.780090 602.920593,488.500305 
	C601.260681,492.644196 599.817810,496.078339 598.500610,499.559998 
	C583.607056,538.926086 568.749878,578.305969 553.821350,617.658752 
	C552.587402,620.911621 552.050232,624.494568 546.775269,624.539490 
	C541.659241,624.583008 539.531189,622.829895 538.004639,618.117432 
	C523.653992,573.816223 507.573151,530.113281 491.945251,485.838928 
z"/>
  <path fill="#000000" opacity="1.000000" stroke="none" d="
M318.380676,424.452698 
	C314.350281,443.406982 321.557617,458.597656 339.288208,469.241119 
	C354.161072,478.169098 370.331390,484.606598 385.317413,493.310608 
	C396.121124,499.585480 406.760284,506.054474 415.918976,514.731934 
	C437.083252,534.783997 439.266541,563.157532 425.873749,588.041260 
	C413.393799,611.228882 392.778412,621.990295 366.993256,624.451782 
	C348.638885,626.203918 331.172119,623.087952 314.328613,616.315247 
	C306.184204,613.040344 299.808228,614.841309 293.776154,620.378174 
	C292.231964,621.795593 290.893829,624.057251 288.337250,622.999878 
	C285.917664,621.999146 286.171631,619.305847 285.923615,617.344604 
	C284.693420,607.616943 283.517334,597.869507 282.793915,588.094116 
	C281.958984,576.812744 281.080017,565.500000 281.750275,554.180115 
	C281.905640,551.555725 279.578247,547.564087 284.812622,546.670105 
	C289.698425,545.835571 291.180115,548.180908 292.435211,552.554260 
	C297.698608,570.894287 307.124176,586.758606 322.075623,598.952087 
	C338.722656,612.528442 368.164948,614.804443 385.025940,603.936890 
	C393.577576,598.425049 397.989899,590.180908 399.596069,580.478760 
	C403.176544,558.850708 394.072845,543.089417 376.241943,531.609863 
	C362.614563,522.836487 347.439362,517.007019 333.344269,509.116943 
	C323.295502,503.491821 313.856506,497.139404 305.123566,489.501770 
	C283.613647,470.689850 281.290894,446.812012 292.002472,422.968628 
	C303.222961,397.992493 323.693542,386.845245 350.361786,385.633148 
	C365.839355,384.929718 380.810638,387.713623 395.577240,391.950623 
	C401.507324,393.652100 407.073151,394.156128 412.857483,390.824585 
	C417.618744,388.082275 419.900208,389.731903 420.264313,395.271393 
	C421.365601,412.028168 422.962524,428.768005 422.315643,445.593262 
	C422.228027,447.872223 423.285614,450.941284 419.284119,451.236755 
	C415.783813,451.495239 412.886963,451.476532 411.767883,446.909241 
	C409.334076,436.976044 405.440460,427.576599 398.833405,419.613556 
	C383.833618,401.535248 364.355286,395.864105 341.949860,400.696625 
	C329.658630,403.347656 321.553833,411.503052 318.380676,424.452698 
z"/>
</svg>
