<svg version="1.1" id="Layer_1" xmlns="http://www.w3.org/2000/svg" xmlns:xlink="http://www.w3.org/1999/xlink" x="0px" y="0px" width="100%" viewBox="0 0 1024 1024" enable-background="new 0 0 1024 1024" xml:space="preserve">
  <path fill="#000000" opacity="1.000000" stroke="none" d="
M318.380676,424.452698 
	C314.350281,443.406982 321.557617,458.597656 339.288208,469.241119 
	C354.161072,478.169098 370.331390,484.606598 385.317413,493.310608 
	C396.121124,499.585480 406.760284,506.054474 415.918976,514.731934 
	C437.083252,534.783997 439.266541,563.157532 425.873749,588.041260 
	C413.393799,611.228882 392.778412,621.990295 366.993256,624.451782 
	C348.638885,626.203918 331.172119,623.087952 314.328613,616.315247 
	C306.184204,613.040344 299.808228,614.841309 293.776154,620.378174 
	C292.231964,621.795593 290.893829,624.057251 288.337250,622.999878 
	C285.917664,621.999146 286.171631,619.305847 285.923615,617.344604 
	C284.693420,607.616943 283.517334,597.869507 282.793915,588.094116 
	C281.958984,576.812744 281.080017,565.500000 281.750275,554.180115 
	C281.905640,551.555725 279.578247,547.564087 284.812622,546.670105 
	C289.698425,545.835571 291.180115,548.180908 292.435211,552.554260 
	C297.698608,570.894287 307.124176,586.758606 322.075623,598.952087 
	C338.722656,612.528442 368.164948,614.804443 385.025940,603.936890 
	C393.577576,598.425049 397.989899,590.180908 399.596069,580.478760 
	C403.176544,558.850708 394.072845,543.089417 376.241943,531.609863 
	C362.614563,522.836487 347.439362,517.007019 333.344269,509.116943 
	C323.295502,503.491821 313.856506,497.139404 305.123566,489.501770 
	C283.613647,470.689850 281.290894,446.812012 292.002472,422.968628 
	C303.222961,397.992493 323.693542,386.845245 350.361786,385.633148 
	C365.839355,384.929718 380.810638,387.713623 395.577240,391.950623 
	C401.507324,393.652100 407.073151,394.156128 412.857483,390.824585 
	C417.618744,388.082275 419.900208,389.731903 420.264313,395.271393 
	C421.365601,412.028168 422.962524,428.768005 422.315643,445.593262 
	C422.228027,447.872223 423.285614,450.941284 419.284119,451.236755 
	C415.783813,451.495239 412.886963,451.476532 411.767883,446.909241 
	C409.334076,436.976044 405.440460,427.576599 398.833405,419.613556 
	C383.833618,401.535248 364.355286,395.864105 341.949860,400.696625 
	C329.658630,403.347656 321.553833,411.503052 318.380676,424.452698 
z"/>
</svg>
