<svg version="1.2" xmlns="http://www.w3.org/2000/svg" viewBox="0 32.00000000000001 100.00000000000003 41.00000000000001" width="101" height="42">
	<style>
		.s0 { fill: #000000 } 
	</style>
	<g id="Layer 1">
		<g id="Folder 1">
			<path class="s0" d="m24.72 48.12c-0.77-2.13-1.48-4.23-2.36-6.43-0.27 0.77-0.5 1.4-0.72 2.04q-0.78 2.23-1.56 4.46c-0.07 0.2-0.09 0.44-0.38 0.43-0.26-0.01-0.33-0.23-0.4-0.43q-1.26-3.59-2.52-7.18-0.29-0.87-0.61-1.74c-0.19-0.48-0.36-0.99-0.9-1.25 0.32-0.19 2.22-0.23 2.9-0.06-0.89 0.52-0.56 1.22-0.33 1.88q1.06 3.04 2.13 6.07c0.03 0.07 0.06 0.16 0.18 0.18 0.22-0.22 0.23-0.54 0.34-0.82q0.61-1.7 1.21-3.4c0.55-1.55-0.11-2.76-1.06-3.93 0.26-0.18 0.6-0.07 0.92-0.08 1.06-0.01 1.05 0 1.39 0.98q1.22 3.49 2.45 6.99c0.05 0.13 0.11 0.26 0.21 0.51 0.26-0.72 0.49-1.33 0.7-1.95q0.75-2.21 1.48-4.44c0.23-0.71 0.51-1.45-0.35-2.04q1.14 0 2.28 0 0.01 0.09 0 0.11c-0.72 0.44-1 1.16-1.26 1.91q-1.42 4.1-2.84 8.2c-0.06 0.19-0.08 0.44-0.33 0.49-0.39 0.09-0.47-0.2-0.57-0.5z"/>
			<path class="s0" d="m34.84 48.12c0.29-0.3 0.38-0.64 0.38-1.01q0-4 0.01-8-0.01-0.78-0.72-1.1c0.15-0.22 0.35-0.15 0.51-0.15q1.88-0.01 3.75 0 0.92 0 1.74 0.41c1.64 0.83 1.84 3 0.39 4.12q-0.4 0.28-0.8 0.53c0.04 0.23 0.23 0.26 0.36 0.32q1.84 0.9 1.65 2.81c-0.11 1.12-0.96 1.99-2.21 2.32-0.75 0.2-1.5 0.2-2.27 0.2q-1.36-0.01-2.73-0.01c-0.14 0-0.3 0.04-0.39-0.13 0.03-0.18 0.2-0.19 0.33-0.31zm2-4.71c-0.17 0.06-0.19 0.2-0.19 0.35q-0.01 1.76 0.01 3.52c0.01 0.45 0.28 0.71 0.75 0.73q0.65 0.04 1.31-0.07c1.02-0.18 1.7-0.8 1.78-1.71 0.12-1.45-0.33-2.27-1.45-2.64-0.7-0.23-1.41-0.21-2.21-0.18zm-0.19-1.57c0.01 1.16-0.14 1 1.02 1q0.09 0 0.19 0 2.62-0.01 2.45-2.63c-0.06-0.84-0.55-1.46-1.36-1.71-0.59-0.18-1.2-0.05-1.8-0.1-0.38-0.03-0.51 0.14-0.5 0.52 0.01 0.94 0 1.88 0 2.92z"/>
			<path class="s0" d="m45.15 66.05c-0.27 0.37-0.43 0.82-0.99 0.84-0.15-0.29-0.23-0.57-0.08-0.91 1.07-2.37 2.15-4.75 3.8-6.79 1.18-1.48 2.01-3.19 3.28-4.6 0.52-0.58 1.04-1.16 1.63-1.68q0.26-0.22 0.55-0.4c0.29-0.18 0.59-0.22 0.86 0.02 0.25 0.22 0.24 0.5 0.13 0.81-0.24 0.73-0.75 1.29-1.25 1.84-0.94 1.04-1.96 2-3.1 2.82-0.76 0.53-1.2 1.26-1.47 2.2 1.03-0.21 1.89-0.67 2.7-1.23q0.6-0.41 1.14-0.92c0.21-0.21 0.48-0.48 0.81-0.31 0.34 0.19 0.62 0.47 0.68 0.9 0.08 0.73 0.22 0.8 0.88 0.44q1.04-0.57 1.73-1.55 0.21-0.3 0.47-0.56c0.2-0.19 0.45-0.34 0.74-0.14q0.42 0.3 0.22 0.77c-0.25 0.58-0.48 1.18-0.78 1.73-0.19 0.35-0.33 0.71-0.52 1.05-0.06 0.11-0.14 0.23-0.02 0.35 0.09 0.1 0.2 0.05 0.32 0.03 0.82-0.17 1.48-0.66 2.14-1.13 0.32-0.24 0.63-0.47 1-0.61 0.1 0.17 0.03 0.25-0.04 0.31-0.88 0.81-1.79 1.56-2.98 1.88-0.33 0.09-0.66 0.12-0.92-0.14-0.25-0.26-0.12-0.58-0.05-0.88 0.15-0.57 0.53-1.04 0.71-1.6q0.03-0.1 0.06-0.26c-0.35-0.04-0.54 0.17-0.74 0.34-0.37 0.33-0.78 0.58-1.19 0.85-0.21 0.15-0.46 0.32-0.72 0.26-0.53-0.13-0.75 0.19-0.99 0.55q-0.41 0.64-1.15 0.86c-0.63 0.18-1.15-0.27-1.03-0.92 0.05-0.22 0.11-0.44 0.18-0.73-0.92 0.59-1.9 0.94-2.89 1.26-0.24 0.07-0.3 0.33-0.4 0.53-0.78 1.63-1.73 3.17-2.72 4.72zm7.28-10.83c0.46-0.53 0.91-1.07 1.27-1.67 0.1-0.17 0.27-0.35 0.01-0.67-1.71 1.21-2.85 2.87-3.92 4.6 0.96-0.63 1.8-1.4 2.64-2.26zm-0.31 4.08q-0.27 0.45-0.53 0.92c-0.09 0.16-0.14 0.33 0.04 0.48 0.18 0.16 0.34 0.04 0.48-0.05 0.46-0.32 0.84-0.71 1.01-1.26 0.11-0.34 0.27-0.67-0.02-1.03-0.42 0.19-0.69 0.52-0.98 0.94zm-5.39 2.52c-0.72 1.24-1.39 2.51-1.91 3.86 1.07-1.56 1.95-3.21 2.7-4.93-0.3 0.3-0.56 0.63-0.79 1.07zm10.51-4.12c0.04-0.11 0.14-0.22 0.07-0.35-0.49 0.28-0.53 0.35-0.4 0.69 0.16-0.03 0.22-0.17 0.33-0.34z"/>
			<path class="s0" d="m46.29 48.56q-1.03 0-1.98 0-0.01-0.15 0-0.16c0.7-0.39 0.78-1.05 0.78-1.75q-0.01-3.59 0-7.18c0.01-0.62-0.05-1.18-0.73-1.43 0.14-0.26 0.34-0.18 0.5-0.18q2.91 0 5.81-0.01c0.34 0 0.54 0.07 0.58 0.46 0.05 0.55 0.31 1.07 0.3 1.63-0.27 0.06-0.34-0.11-0.41-0.25q-0.68-1.17-2.02-1.26c-0.71-0.04-1.42-0.06-2.14 0.06-0.28 0.04-0.4 0.17-0.4 0.44q0.01 1.85 0.01 3.71c0 0.21 0.05 0.4 0.32 0.39 0.66-0.03 1.32 0.05 1.99-0.06 0.54-0.1 0.94-0.34 1.16-0.85q0.05-0.11 0.14-0.19 0.02-0.02 0.16-0.02 0 1.42 0 2.85c-0.22 0-0.21-0.17-0.25-0.27-0.25-0.61-0.74-0.86-1.34-0.89-0.6-0.04-1.2-0.01-1.81-0.02-0.26 0-0.36 0.12-0.38 0.38-0.09 1.05 0.05 2.11-0.04 3.17-0.04 0.4 0.18 0.75 0.64 0.77 0.84 0.04 1.68 0.08 2.53-0.03 0.83-0.1 1.43-0.56 1.92-1.2 0.12-0.15 0.19-0.35 0.45-0.37 0.11 0.21 0.01 0.4-0.05 0.58-0.19 0.54-0.15 1.25-0.56 1.58-0.43 0.32-1.1 0.09-1.67 0.1-1.15 0.02-2.31 0-3.51 0z"/>
			<path class="s0" d="m64.44 60.84c-0.25 0.13-0.46 0.26-0.69 0.33-0.48 0.15-0.88-0.17-0.77-0.66 0.17-0.74 0.52-1.4 0.95-2.02 0.1-0.14 0.23-0.24 0.41-0.12 0.19 0.12 0.12 0.28 0.04 0.42q-0.36 0.72-0.72 1.44c-0.07 0.13-0.19 0.24-0.12 0.43 0.25 0.11 0.42-0.08 0.6-0.19 0.86-0.56 1.67-1.18 2.38-1.93 0.16-0.16 0.32-0.42 0.62-0.25 0.26 0.16 0.28 0.4 0.21 0.68-0.17 0.78-0.43 1.52-0.85 2.24 1.13-0.63 2.12-1.41 3.11-2.2 0.28-0.22 0.47-0.54 0.73-0.78 0.27-0.24 0.59-0.46 0.97-0.3 0.4 0.17 0.61 0.51 0.67 0.95 0.09 0.6 0.19 0.66 0.72 0.36q0.63-0.38 1.17-0.88c0.15-0.13 0.3-0.36 0.53-0.17 0.23 0.2 0.05 0.38-0.06 0.56q-0.36 0.58-0.7 1.17c-0.11 0.19-0.23 0.4-0.14 0.66 0.29 0.03 0.48-0.13 0.67-0.26q1.16-0.78 2.05-1.86c0.1-0.13 0.21-0.35 0.43-0.21 0.21 0.14 0.12 0.35 0.03 0.52q-0.37 0.72-0.71 1.45c-0.19 0.43-0.09 0.56 0.39 0.51 0.62-0.06 1.12-0.41 1.62-0.75q0.41-0.29 0.81-0.61c0.13-0.1 0.24-0.23 0.47-0.17-0.1 0.44-0.45 0.67-0.74 0.92-0.58 0.5-1.21 0.92-1.99 1.07-0.38 0.08-0.74 0.14-1.04-0.18-0.29-0.31-0.23-0.65 0.03-1.07-0.61 0.34-1.02 0.77-1.55 1-0.28 0.12-0.57 0.32-0.86 0.05-0.26-0.24-0.22-0.55-0.13-0.86q0.09-0.29 0.21-0.66c-0.46 0.22-0.85 0.51-1.35 0.35-0.14-0.05-0.21 0.12-0.28 0.22q-0.35 0.55-0.87 0.91c-0.36 0.24-0.74 0.49-1.17 0.21-0.45-0.28-0.43-0.73-0.27-1.24-0.87 0.59-1.68 1.18-2.51 1.7-0.44 0.28-0.7 0.63-0.94 1.08-1.2 2.3-2.7 4.37-4.79 5.96-0.36 0.28-0.74 0.53-1.19 0.65-0.25 0.08-0.52 0.13-0.73-0.09-0.21-0.23-0.22-0.49-0.13-0.78 0.29-0.93 0.94-1.63 1.56-2.33q1.83-2.09 4.13-3.64c0.67-0.46 1.16-1.01 1.45-1.76 0.19-0.52 0.38-1.03 0.63-1.68-0.77 0.74-1.52 1.26-2.29 1.81zm-4.88 7.28c-0.07 0.24-0.24 0.46-0.11 0.73 1.33 0.3 5.33-4.77 5.61-6.08-0.71 0.36-1.26 0.89-1.84 1.38-1.36 1.16-2.67 2.37-3.66 3.97zm10.93-7.63c0.58-0.52 0.95-1.13 0.86-2.01-0.78 0.32-1.18 0.9-1.49 1.57-0.1 0.22-0.29 0.5-0.1 0.67 0.24 0.23 0.46-0.08 0.73-0.23z"/>
			<path class="s0" d="m13.08 47.95c-1.24 1.08-2.65 1.09-4.11 0.77q-0.15-0.03-0.29-0.07c-0.92-0.27-1.06-0.43-1.09-1.38-0.01-0.34-0.21-0.69 0.02-1.06 0.28 0.11 0.31 0.38 0.43 0.58 0.73 1.2 2.02 1.73 3.25 1.33 1.31-0.44 1.7-2.13 0.74-3.21-0.39-0.43-0.87-0.73-1.36-1.03-0.8-0.48-1.65-0.9-2.29-1.62q-1.2-1.35-0.53-2.99c0.45-1.11 1.36-1.59 2.52-1.7 0.89-0.09 1.73 0.16 2.58 0.4q0.19 0.04 0.24 0.21c0.18 0.7 0.13 1.41 0.15 2.12 0 0.05-0.07 0.09-0.12 0.16-0.21-0.15-0.2-0.38-0.28-0.56-0.36-0.82-0.83-1.51-1.79-1.71-0.72-0.15-1.56 0.07-1.87 0.6q-0.59 1.01 0.01 2.04c0.35 0.58 0.93 0.9 1.48 1.24 0.78 0.49 1.59 0.94 2.3 1.56 1.16 0.99 1.34 3.15 0.01 4.32z"/>
			<path class="s0" d="m72.45 43.46c-0.12 0.93 0.05 1.83-0.15 2.71-0.38 1.71-1.57 2.67-3.33 2.69-0.85 0.02-1.7 0.01-2.48-0.36-1.39-0.65-1.92-1.85-1.95-3.29-0.05-1.82-0.02-3.64-0.02-5.46 0.01-0.69 0.08-1.39-0.74-1.79 1-0.13 1.93-0.11 2.92-0.02-0.94 0.53-0.74 1.41-0.75 2.22q-0.01 2.44 0 4.88 0 0.81 0.26 1.57c0.25 0.74 0.73 1.28 1.5 1.48 1.25 0.33 2.63 0.12 3.44-0.88 0.53-0.66 0.66-1.45 0.68-2.25 0.03-1.77 0.07-3.54-0.01-5.31-0.05-1.02 0.14-0.98-0.93-1.74 0.79 0 1.49 0 2.19 0-0.74 0.47-0.65 1.22-0.67 1.89-0.02 1.21-0.05 2.41 0.04 3.66z"/>
			<path class="s0" d="m54.99 44.84q1.24-3.25 2.46-6.46 0.06-0.13 0.12-0.27c0.06-0.17 0.13-0.33 0.35-0.34 0.24-0.01 0.3 0.16 0.37 0.33q0.42 1.07 0.83 2.14 1.39 3.54 2.77 7.08c0.19 0.47 0.48 0.83 0.93 1.14-0.97 0.14-1.93 0.1-2.87 0.08-0.05-0.15 0.02-0.2 0.09-0.24 0.41-0.22 0.46-0.57 0.31-0.96q-0.41-1.09-0.83-2.19-0.13-0.39-0.54-0.39c-0.98 0.02-1.96-0.03-2.93 0.05q-0.48 0.03-0.62 0.45-0.34 0.94-0.65 1.89c-0.15 0.48-0.13 0.94 0.34 1.34-0.7 0-1.4 0-2.19 0 1.34-0.89 1.46-2.38 2.06-3.65zm1.8-3.15c-0.27 0.82-0.66 1.61-0.86 2.48 1.1 0 2.13 0 3.22 0-0.55-1.43-1.07-2.79-1.63-4.22-0.37 0.58-0.47 1.15-0.73 1.74z"/>
			<path class="s0" d="m88.4 41.49c0.34 0.57 0.66 1.12 0.99 1.69 0.26-0.18 0.36-0.45 0.49-0.68q0.81-1.45 1.59-2.91c0.3-0.56 0.49-1.12-0.25-1.67 0.83 0 1.53 0 2.15 0-1.41 1.63-2.25 3.64-3.34 5.5q-0.39 0.66-0.36 1.44 0.03 0.93 0.01 1.86c-0.02 0.66-0.02 1.32 0.66 1.78q-1.39 0-2.77 0c-0.03-0.17 0.06-0.22 0.15-0.26 0.39-0.18 0.52-0.52 0.52-0.91q0.01-1.42 0.01-2.83c0-0.38-0.18-0.7-0.35-1q-1.33-2.31-2.66-4.61c-0.23-0.41-0.62-0.64-0.95-0.98q1.57 0 3.15 0 0.02 0.1 0.01 0.12c-0.57 0.6-0.58 0.61-0.19 1.37 0.35 0.7 0.75 1.37 1.14 2.09z"/>
			<path class="s0" d="m79.62 41.99q0 2.24 0 4.4c0 1.27 0 1.27 0.83 2.11q-1.55 0-3 0c-0.03-0.2 0.12-0.2 0.21-0.25q0.54-0.3 0.53-0.92 0-4.24 0.01-8.49c0-0.31-0.1-0.43-0.43-0.44-1.14-0.01-2.14 0.22-2.66 1.39-0.04 0.09-0.1 0.17-0.24 0.18-0.15-0.13-0.11-0.31-0.07-0.47 0.14-0.52 0.01-1.2 0.38-1.53 0.37-0.33 1.03-0.1 1.56-0.11 1.94-0.01 3.87 0.01 5.81-0.01 0.44 0 0.7 0.06 0.72 0.58 0.03 0.5 0.21 0.98 0.14 1.48-0.2 0.04-0.26-0.09-0.32-0.2-0.53-0.97-1.4-1.3-2.45-1.3-1.2 0.01-1.01-0.14-1.02 0.99q-0.01 1.26 0 2.59z"/>
			<path class="s0" d="m28.32 60.54c1.14-0.44 2.01-1.19 2.83-2.01q0.2-0.22 0.41-0.41c0.15-0.13 0.31-0.31 0.51-0.17 0.21 0.15 0.34 0.37 0.26 0.64q-0.1 0.31-0.24 0.66c0.52-0.37 0.96-0.78 1.5-1.04 0.69-0.33 1.13-0.07 1.2 0.69q0.01 0.06 0.04 0.17c0.35-0.14 0.55-0.46 0.84-0.65 0.26-0.17 0.5-0.37 0.84-0.19 0.31 0.16 0.35 0.44 0.34 0.75q0 0.56-0.01 1.12c-0.02 0.43 0.17 0.47 0.51 0.32 0.84-0.39 1.54-0.96 2.2-1.6 0.39-0.38 0.77-0.78 1.33-0.96 0.33-0.11 0.56-0.01 0.75 0.26 0.2 0.28 0.05 0.48-0.13 0.68q-0.69 0.78-1.62 1.24c-0.17 0.08-0.42 0.14-0.35 0.4 0.06 0.25 0.32 0.18 0.5 0.19 1.11 0.06 1.98-0.52 2.84-1.11q0.2-0.15 0.4-0.29 0.06-0.02 0.14-0.02c0.12 0.24-0.07 0.37-0.2 0.49q-1.34 1.27-3.17 1.46-0.93 0.08-1.28-1-0.57 0.33-1.14 0.65c-0.84 0.46-1.39 0.12-1.42-0.83-0.02-0.39 0.1-0.78-0.02-1.17-0.25-0.08-0.36 0.11-0.5 0.23-0.56 0.48-0.96 1.1-1.42 1.67-0.12 0.14-0.21 0.36-0.46 0.21-0.25-0.14-0.21-0.33-0.12-0.54 0.16-0.43 0.4-0.82 0.44-1.29 0.02-0.15 0.1-0.34-0.08-0.44-0.16-0.09-0.32 0-0.46 0.09q-1.12 0.72-1.89 1.8-0.12 0.16-0.23 0.32c-0.11 0.2-0.27 0.29-0.48 0.18-0.22-0.12-0.19-0.3-0.1-0.51 0.25-0.55 0.55-1.09 0.72-1.77-0.44 0.22-0.67 0.56-0.96 0.83-0.62 0.58-1.28 1.11-2.09 1.39-0.87 0.31-1.4-0.15-1.22-1.04 0.16-0.75 0.56-1.38 1.03-1.98 0.1-0.13 0.25-0.22 0.42-0.12 0.19 0.11 0.15 0.28 0.07 0.43q-0.35 0.64-0.7 1.29-0.17 0.3-0.27 0.62c-0.09 0.35 0.03 0.51 0.44 0.36zm12.28-1.92q-0.39 0.4-0.78 0.8c0.51-0.25 1.03-0.48 1.3-1.04-0.21 0.01-0.34 0.1-0.52 0.24z"/>
			<path class="s0" d="m27.16 52.23c2.6-0.01 5.14-0.01 7.67-0.12 0.1 0.37-0.1 0.42-0.29 0.47-0.34 0.1-0.68 0.06-1.02 0.07q-1.85 0.06-3.71 0.12c-0.58 0.02-1.01 0.27-1.35 0.74-1.19 1.65-2.23 3.4-3.31 5.12q-1.35 2.18-2.69 4.36-0.06 0.11-0.14 0.2-0.14 0.19-0.34 0.09c-0.17-0.09-0.08-0.21-0.01-0.33 0.74-1.25 1.46-2.5 2.21-3.74 1.07-1.74 2.06-3.54 3.24-5.22 0.25-0.36 0.52-0.7 0.86-1.17-2.79 0.14-5.5 0-8.07 0.98-0.13-0.28 0.02-0.33 0.15-0.4 1.16-0.61 2.4-0.91 3.69-0.99q1.52-0.09 3.11-0.18z"/>
			<path class="s0" d="m29.68 56.75q-0.02 0.14-0.05 0.22c-0.12 0.29-0.32 0.48-0.63 0.33-0.2-0.1-0.13-0.33-0.02-0.47 0.19-0.23 0.39-0.48 0.7-0.08z"/>
		</g>
	</g>
</svg>