<svg version="1.2" xmlns="http://www.w3.org/2000/svg" viewBox="0 95.05 297.03 121.782" width="300" height="124.752"><style>.s0 { fill: #000000 }</style><g id="Layer 1"><g id="Folder 1"><path class="s0" d="M73.426 142.931c-2.287 -6.327 -4.396 -12.564 -7.01 -19.099 -0.802 2.287 -1.485 4.158 -2.139 6.059l-4.634 13.248c-0.208 0.594 -0.267 1.307 -1.129 1.277 -0.772 -0.03 -0.98 -0.683 -1.188 -1.277l-7.485 -21.327q-0.861 -2.584 -1.812 -5.168c-0.564 -1.426 -1.069 -2.941 -2.673 -3.713 0.95 -0.564 6.594 -0.683 8.614 -0.178 -2.644 1.545 -1.663 3.624 -0.98 5.584q3.149 9.03 6.327 18.03c0.089 0.208 0.178 0.475 0.535 0.535 0.653 -0.653 0.683 -1.604 1.01 -2.436q1.812 -5.05 3.594 -10.099c1.634 -4.604 -0.327 -8.198 -3.149 -11.673 0.772 -0.535 1.782 -0.208 2.733 -0.238 3.149 -0.03 3.119 0 4.129 2.911q3.624 10.366 7.277 20.762c0.149 0.386 0.327 0.772 0.624 1.515 0.772 -2.139 1.455 -3.95 2.079 -5.792q2.228 -6.564 4.396 -13.188c0.683 -2.109 1.515 -4.307 -1.04 -6.059h6.772q0.03 0.267 0 0.327c-2.139 1.307 -2.97 3.446 -3.743 5.673l-8.436 24.356c-0.178 0.564 -0.238 1.307 -0.98 1.455 -1.158 0.267 -1.396 -0.594 -1.693 -1.485"/><path class="s0" d="M103.485 142.931c0.861 -0.891 1.129 -1.901 1.129 -3q0 -11.881 0.03 -23.762 -0.03 -2.317 -2.139 -3.267c0.446 -0.653 1.04 -0.446 1.515 -0.446q5.584 -0.03 11.139 0 2.733 0 5.168 1.218c4.871 2.465 5.465 8.911 1.158 12.238q-1.188 0.832 -2.376 1.574c0.119 0.683 0.683 0.772 1.069 0.95q5.465 2.673 4.901 8.347c-0.327 3.327 -2.851 5.911 -6.564 6.891 -2.228 0.594 -4.455 0.594 -6.743 0.594q-4.04 -0.03 -8.109 -0.03c-0.416 0 -0.891 0.119 -1.158 -0.386 0.089 -0.535 0.594 -0.564 0.98 -0.921m5.941 -13.99c-0.505 0.178 -0.564 0.594 -0.564 1.04q-0.03 5.228 0.03 10.455c0.03 1.337 0.832 2.109 2.228 2.168q1.931 0.119 3.891 -0.208c3.03 -0.535 5.05 -2.376 5.287 -5.079 0.356 -4.307 -0.98 -6.743 -4.307 -7.842 -2.079 -0.683 -4.188 -0.624 -6.564 -0.535m-0.564 -4.663c0.03 3.446 -0.416 2.97 3.03 2.97h0.564q7.782 -0.03 7.277 -7.812c-0.178 -2.495 -1.634 -4.337 -4.04 -5.079 -1.752 -0.535 -3.564 -0.149 -5.347 -0.297 -1.129 -0.089 -1.515 0.416 -1.485 1.545 0.03 2.792 0 5.584 0 8.673"/><path class="s0" d="M134.109 196.188c-0.802 1.099 -1.277 2.436 -2.941 2.495 -0.446 -0.861 -0.683 -1.693 -0.238 -2.703 3.178 -7.04 6.386 -14.109 11.287 -20.168 3.505 -4.396 5.97 -9.475 9.743 -13.663 1.545 -1.723 3.089 -3.446 4.842 -4.99q0.772 -0.653 1.634 -1.188c0.861 -0.535 1.752 -0.653 2.554 0.059 0.743 0.653 0.713 1.485 0.386 2.406 -0.713 2.168 -2.228 3.832 -3.713 5.465 -2.792 3.089 -5.822 5.941 -9.208 8.376 -2.257 1.574 -3.564 3.743 -4.366 6.535 3.059 -0.624 5.614 -1.99 8.02 -3.653q1.782 -1.218 3.386 -2.733c0.624 -0.624 1.426 -1.426 2.406 -0.921 1.01 0.564 1.842 1.396 2.02 2.673 0.238 2.168 0.653 2.376 2.614 1.307q3.089 -1.693 5.139 -4.604 0.624 -0.891 1.396 -1.663c0.594 -0.564 1.337 -1.01 2.198 -0.416q1.248 0.891 0.653 2.287c-0.743 1.723 -1.426 3.505 -2.317 5.139 -0.564 1.04 -0.98 2.109 -1.545 3.119 -0.178 0.327 -0.416 0.683 -0.059 1.04 0.267 0.297 0.594 0.149 0.95 0.089 2.436 -0.505 4.396 -1.96 6.356 -3.356 0.95 -0.713 1.871 -1.396 2.97 -1.812 0.297 0.505 0.089 0.743 -0.119 0.921 -2.614 2.406 -5.317 4.634 -8.851 5.584 -0.98 0.267 -1.96 0.356 -2.733 -0.416 -0.743 -0.772 -0.356 -1.723 -0.149 -2.614 0.446 -1.693 1.574 -3.089 2.109 -4.752q0.089 -0.297 0.178 -0.772c-1.04 -0.119 -1.604 0.505 -2.198 1.01 -1.099 0.98 -2.317 1.723 -3.535 2.525 -0.624 0.446 -1.366 0.95 -2.139 0.772 -1.574 -0.386 -2.228 0.564 -2.941 1.634q-1.218 1.901 -3.416 2.554c-1.871 0.535 -3.416 -0.802 -3.059 -2.733 0.149 -0.653 0.327 -1.307 0.535 -2.168 -2.733 1.752 -5.644 2.792 -8.584 3.743 -0.713 0.208 -0.891 0.98 -1.188 1.574 -2.317 4.842 -5.139 9.416 -8.079 14.02m21.624 -32.168c1.366 -1.574 2.703 -3.178 3.772 -4.96 0.297 -0.505 0.802 -1.04 0.03 -1.99 -5.079 3.594 -8.465 8.525 -11.644 13.663 2.851 -1.871 5.347 -4.158 7.842 -6.713m-0.921 12.119q-0.802 1.337 -1.574 2.733c-0.267 0.475 -0.416 0.98 0.119 1.426 0.535 0.475 1.01 0.119 1.426 -0.149 1.366 -0.95 2.495 -2.109 3 -3.743 0.327 -1.01 0.802 -1.99 -0.059 -3.059 -1.248 0.564 -2.05 1.545 -2.911 2.792m-16.01 7.485c-2.139 3.683 -4.129 7.455 -5.673 11.465 3.178 -4.634 5.792 -9.535 8.02 -14.644 -0.891 0.891 -1.663 1.871 -2.347 3.178m31.218 -12.238c0.119 -0.327 0.416 -0.653 0.208 -1.04 -1.455 0.832 -1.574 1.04 -1.188 2.05 0.475 -0.089 0.653 -0.505 0.98 -1.01"/><path class="s0" d="M137.495 144.238h-5.881q-0.03 -0.446 0 -0.475c2.079 -1.158 2.317 -3.119 2.317 -5.198q-0.03 -10.663 0 -21.327c0.03 -1.842 -0.149 -3.505 -2.168 -4.248 0.416 -0.772 1.01 -0.535 1.485 -0.535q8.644 0 17.257 -0.03c1.01 0 1.604 0.208 1.723 1.366 0.149 1.634 0.921 3.178 0.891 4.842 -0.802 0.178 -1.01 -0.327 -1.218 -0.743q-2.02 -3.475 -6 -3.743c-2.109 -0.119 -4.218 -0.178 -6.356 0.178 -0.832 0.119 -1.188 0.505 -1.188 1.307q0.03 5.495 0.03 11.02c0 0.624 0.149 1.188 0.95 1.158 1.96 -0.089 3.921 0.149 5.911 -0.178 1.604 -0.297 2.792 -1.01 3.446 -2.525q0.149 -0.327 0.416 -0.564 0.059 -0.059 0.475 -0.059v8.465c-0.653 0 -0.624 -0.505 -0.743 -0.802 -0.743 -1.812 -2.198 -2.554 -3.98 -2.644 -1.782 -0.119 -3.564 -0.03 -5.376 -0.059 -0.772 0 -1.069 0.356 -1.129 1.129 -0.267 3.119 0.149 6.267 -0.119 9.416 -0.119 1.188 0.535 2.228 1.901 2.287 2.495 0.119 4.99 0.238 7.515 -0.089 2.465 -0.297 4.248 -1.663 5.703 -3.564 0.356 -0.446 0.564 -1.04 1.337 -1.099 0.327 0.624 0.03 1.188 -0.149 1.723 -0.564 1.604 -0.446 3.713 -1.663 4.693 -1.277 0.95 -3.267 0.267 -4.96 0.297 -3.416 0.059 -6.861 0 -10.426 0"/><path class="s0" d="M191.406 180.713c-0.743 0.386 -1.366 0.772 -2.05 0.98 -1.426 0.446 -2.614 -0.505 -2.287 -1.96 0.505 -2.198 1.545 -4.158 2.822 -6 0.297 -0.416 0.683 -0.713 1.218 -0.356 0.564 0.356 0.356 0.832 0.119 1.248l-2.139 4.277c-0.208 0.386 -0.564 0.713 -0.356 1.277 0.743 0.327 1.248 -0.238 1.782 -0.564 2.554 -1.663 4.96 -3.505 7.069 -5.733 0.475 -0.475 0.95 -1.248 1.842 -0.743 0.772 0.475 0.832 1.188 0.624 2.02a22.574 22.574 0 0 1 -2.525 6.653c3.356 -1.871 6.297 -4.188 9.238 -6.535 0.832 -0.653 1.396 -1.604 2.168 -2.317 0.802 -0.713 1.752 -1.366 2.881 -0.891 1.188 0.505 1.812 1.515 1.99 2.822 0.267 1.782 0.564 1.96 2.139 1.069q1.871 -1.129 3.475 -2.614c0.446 -0.386 0.891 -1.069 1.574 -0.505 0.683 0.594 0.149 1.129 -0.178 1.663q-1.069 1.723 -2.079 3.475c-0.327 0.564 -0.683 1.188 -0.416 1.96 0.861 0.089 1.426 -0.386 1.99 -0.772q3.446 -2.317 6.089 -5.525c0.297 -0.386 0.624 -1.04 1.277 -0.624 0.624 0.416 0.356 1.04 0.089 1.545q-1.099 2.139 -2.109 4.307c-0.564 1.277 -0.267 1.663 1.158 1.515 1.842 -0.178 3.327 -1.218 4.812 -2.228q1.218 -0.861 2.406 -1.812c0.386 -0.297 0.713 -0.683 1.396 -0.505 -0.297 1.307 -1.337 1.99 -2.198 2.733 -1.723 1.485 -3.594 2.733 -5.911 3.178 -1.129 0.238 -2.198 0.416 -3.089 -0.535 -0.861 -0.921 -0.683 -1.931 0.089 -3.178 -1.812 1.01 -3.03 2.287 -4.604 2.97 -0.832 0.356 -1.693 0.95 -2.554 0.149 -0.772 -0.713 -0.653 -1.634 -0.386 -2.554q0.267 -0.861 0.624 -1.96c-1.366 0.653 -2.525 1.515 -4.01 1.04 -0.416 -0.149 -0.624 0.356 -0.832 0.653q-1.04 1.634 -2.584 2.703c-1.069 0.713 -2.198 1.455 -3.475 0.624 -1.337 -0.832 -1.277 -2.168 -0.802 -3.683 -2.584 1.752 -4.99 3.505 -7.455 5.05 -1.307 0.832 -2.079 1.871 -2.792 3.208 -3.564 6.832 -8.02 12.98 -14.228 17.703 -1.069 0.832 -2.198 1.574 -3.535 1.931 -0.743 0.238 -1.545 0.386 -2.168 -0.267 -0.624 -0.683 -0.653 -1.455 -0.386 -2.317 0.861 -2.762 2.792 -4.842 4.634 -6.921q5.436 -6.208 12.267 -10.812c1.99 -1.366 3.446 -3 4.307 -5.228 0.564 -1.545 1.129 -3.059 1.871 -4.99 -2.287 2.198 -4.515 3.743 -6.802 5.376m-14.495 21.624c-0.208 0.713 -0.713 1.366 -0.327 2.168 3.95 0.891 15.832 -14.168 16.663 -18.059 -2.109 1.069 -3.743 2.644 -5.465 4.099 -4.04 3.446 -7.931 7.04 -10.871 11.792m32.465 -22.663c1.723 -1.545 2.822 -3.356 2.554 -5.97 -2.317 0.95 -3.505 2.673 -4.426 4.663 -0.297 0.653 -0.861 1.485 -0.297 1.99 0.713 0.683 1.366 -0.238 2.168 -0.683"/><path class="s0" d="M38.851 142.426c-3.683 3.208 -7.871 3.238 -12.208 2.287q-0.446 -0.089 -0.861 -0.208c-2.733 -0.802 -3.149 -1.277 -3.238 -4.099 -0.03 -1.01 -0.624 -2.05 0.059 -3.149 0.832 0.327 0.921 1.129 1.277 1.723 2.168 3.564 6 5.139 9.653 3.95 3.891 -1.307 5.05 -6.327 2.198 -9.535 -1.158 -1.277 -2.584 -2.168 -4.04 -3.059 -2.376 -1.426 -4.901 -2.673 -6.802 -4.812q-3.564 -4.01 -1.574 -8.881c1.337 -3.297 4.04 -4.723 7.485 -5.05 2.644 -0.267 5.139 0.475 7.663 1.188q0.564 0.119 0.713 0.624c0.535 2.079 0.386 4.188 0.446 6.297 0 0.149 -0.208 0.267 -0.356 0.475 -0.624 -0.446 -0.594 -1.129 -0.832 -1.663 -1.069 -2.436 -2.465 -4.485 -5.317 -5.079 -2.139 -0.446 -4.634 0.208 -5.554 1.782q-1.752 3 0.03 6.059c1.04 1.723 2.762 2.673 4.396 3.683 2.317 1.455 4.723 2.792 6.832 4.634 3.446 2.941 3.98 9.356 0.03 12.832"/><path class="s0" d="M215.198 129.089c-0.356 2.762 0.149 5.436 -0.446 8.05 -1.129 5.079 -4.663 7.931 -9.891 7.99 -2.525 0.059 -5.05 0.03 -7.366 -1.069 -4.129 -1.931 -5.703 -5.495 -5.792 -9.772 -0.149 -5.406 -0.059 -10.812 -0.059 -16.218 0.03 -2.05 0.238 -4.129 -2.198 -5.317 2.97 -0.386 5.733 -0.327 8.673 -0.059 -2.792 1.574 -2.198 4.188 -2.228 6.594q-0.03 7.248 0 14.495 0 2.406 0.772 4.663c0.743 2.198 2.168 3.802 4.455 4.396 3.713 0.98 7.812 0.356 10.218 -2.614 1.574 -1.96 1.96 -4.307 2.02 -6.683 0.089 -5.257 0.208 -10.515 -0.03 -15.772 -0.149 -3.03 0.416 -2.911 -2.762 -5.168h6.505c-2.198 1.396 -1.931 3.624 -1.99 5.614 -0.059 3.594 -0.149 7.158 0.119 10.871"/><path class="s0" d="M163.337 133.188q3.683 -9.653 7.307 -19.188 0.178 -0.386 0.356 -0.802c0.178 -0.505 0.386 -0.98 1.04 -1.01 0.713 -0.03 0.891 0.475 1.099 0.98q1.248 3.178 2.465 6.356 4.129 10.515 8.228 21.03c0.564 1.396 1.426 2.465 2.762 3.386 -2.881 0.416 -5.733 0.297 -8.525 0.238 -0.149 -0.446 0.059 -0.594 0.267 -0.713 1.218 -0.653 1.366 -1.693 0.921 -2.851q-1.218 -3.238 -2.465 -6.505 -0.386 -1.158 -1.604 -1.158c-2.911 0.059 -5.822 -0.089 -8.703 0.149q-1.426 0.089 -1.842 1.337 -1.01 2.792 -1.931 5.614c-0.446 1.426 -0.386 2.792 1.01 3.98h-6.505c3.98 -2.644 4.337 -7.069 6.119 -10.842m5.347 -9.356c-0.802 2.436 -1.96 4.782 -2.554 7.366h9.564c-1.634 -4.248 -3.178 -8.287 -4.842 -12.535 -1.099 1.723 -1.396 3.416 -2.168 5.168"/><path class="s0" d="M262.574 123.238c1.01 1.693 1.96 3.327 2.941 5.02 0.772 -0.535 1.069 -1.337 1.455 -2.02q2.406 -4.307 4.723 -8.644c0.891 -1.663 1.455 -3.327 -0.743 -4.96h6.386c-4.188 4.842 -6.683 10.812 -9.921 16.337q-1.158 1.96 -1.069 4.277 0.089 2.762 0.03 5.525c-0.059 1.96 -0.059 3.921 1.96 5.287h-8.228c-0.089 -0.505 0.178 -0.653 0.446 -0.772 1.158 -0.535 1.545 -1.545 1.545 -2.703q0.03 -4.218 0.03 -8.406c0 -1.129 -0.535 -2.079 -1.04 -2.97q-3.95 -6.861 -7.901 -13.693c-0.683 -1.218 -1.842 -1.901 -2.822 -2.911h9.356q0.059 0.297 0.03 0.356c-1.693 1.782 -1.723 1.812 -0.564 4.069 1.04 2.079 2.228 4.069 3.386 6.208"/><path class="s0" d="M236.495 124.723v13.069c0 3.772 0 3.772 2.465 6.267h-8.911c-0.089 -0.594 0.356 -0.594 0.624 -0.743q1.604 -0.891 1.574 -2.733 0 -12.594 0.03 -25.218c0 -0.921 -0.297 -1.277 -1.277 -1.307 -3.386 -0.03 -6.356 0.653 -7.901 4.129 -0.119 0.267 -0.297 0.505 -0.713 0.535 -0.446 -0.386 -0.327 -0.921 -0.208 -1.396 0.416 -1.545 0.03 -3.564 1.129 -4.545s3.059 -0.297 4.634 -0.327c5.762 -0.03 11.495 0.03 17.257 -0.03 1.307 0 2.079 0.178 2.139 1.723 0.089 1.485 0.624 2.911 0.416 4.396 -0.594 0.119 -0.772 -0.267 -0.95 -0.594 -1.574 -2.881 -4.158 -3.861 -7.277 -3.861 -3.564 0.03 -3 -0.416 -3.03 2.941q-0.03 3.743 0 7.693"/><path class="s0" d="M84.119 179.822c3.386 -1.307 5.97 -3.535 8.406 -5.97q0.594 -0.653 1.218 -1.218c0.446 -0.386 0.921 -0.921 1.515 -0.505 0.624 0.446 1.01 1.099 0.772 1.901q-0.297 0.921 -0.713 1.96c1.545 -1.099 2.851 -2.317 4.455 -3.089 2.05 -0.98 3.356 -0.208 3.564 2.05q0.03 0.178 0.119 0.505c1.04 -0.416 1.634 -1.366 2.495 -1.931 0.772 -0.505 1.485 -1.099 2.495 -0.564 0.921 0.475 1.04 1.307 1.01 2.228q0 1.663 -0.03 3.327c-0.059 1.277 0.505 1.396 1.515 0.95 2.495 -1.158 4.574 -2.851 6.535 -4.752 1.158 -1.129 2.287 -2.317 3.95 -2.851 0.98 -0.327 1.663 -0.03 2.228 0.772 0.594 0.832 0.149 1.426 -0.386 2.02q-2.05 2.317 -4.812 3.683c-0.505 0.238 -1.248 0.416 -1.04 1.188 0.178 0.743 0.95 0.535 1.485 0.564 3.297 0.178 5.881 -1.545 8.436 -3.297q0.594 -0.446 1.188 -0.861 0.178 -0.059 0.416 -0.059c0.356 0.713 -0.208 1.099 -0.594 1.455q-3.98 3.772 -9.416 4.337 -2.762 0.238 -3.802 -2.97 -1.693 0.98 -3.386 1.931c-2.495 1.366 -4.129 0.356 -4.218 -2.465 -0.059 -1.158 0.297 -2.317 -0.059 -3.475 -0.743 -0.238 -1.069 0.327 -1.485 0.683 -1.663 1.426 -2.851 3.267 -4.218 4.96 -0.356 0.416 -0.624 1.069 -1.366 0.624 -0.743 -0.416 -0.624 -0.98 -0.356 -1.604 0.475 -1.277 1.188 -2.436 1.307 -3.832 0.059 -0.446 0.297 -1.01 -0.238 -1.307 -0.475 -0.267 -0.95 0 -1.366 0.267q-3.327 2.139 -5.614 5.347 -0.356 0.475 -0.683 0.95c-0.327 0.594 -0.802 0.861 -1.426 0.535 -0.653 -0.356 -0.564 -0.891 -0.297 -1.515 0.743 -1.634 1.634 -3.238 2.139 -5.257 -1.307 0.653 -1.99 1.663 -2.851 2.465 -1.842 1.723 -3.802 3.297 -6.208 4.129 -2.584 0.921 -4.158 -0.446 -3.624 -3.089 0.475 -2.228 1.663 -4.099 3.059 -5.881 0.297 -0.386 0.743 -0.653 1.248 -0.356 0.564 0.327 0.446 0.832 0.208 1.277q-1.04 1.901 -2.079 3.832 -0.505 0.891 -0.802 1.842c-0.267 1.04 0.089 1.515 1.307 1.069m36.475 -5.703 -2.317 2.376c1.515 -0.743 3.059 -1.426 3.861 -3.089 -0.624 0.03 -1.01 0.297 -1.545 0.713"/><path class="s0" d="M80.673 155.139c7.723 -0.03 15.267 -0.03 22.782 -0.356 0.297 1.099 -0.297 1.248 -0.861 1.396 -1.01 0.297 -2.02 0.178 -3.03 0.208l-11.02 0.356c-1.723 0.059 -3 0.802 -4.01 2.198 -3.535 4.901 -6.624 10.099 -9.832 15.208q-4.01 6.475 -7.99 12.95 -0.178 0.327 -0.416 0.594 -0.416 0.564 -1.01 0.267c-0.505 -0.267 -0.238 -0.624 -0.03 -0.98 2.198 -3.713 4.337 -7.426 6.564 -11.109 3.178 -5.168 6.119 -10.515 9.624 -15.505 0.743 -1.069 1.545 -2.079 2.554 -3.475 -8.287 0.416 -16.337 0 -23.97 2.911 -0.386 -0.832 0.059 -0.98 0.446 -1.188 3.446 -1.812 7.129 -2.703 10.96 -2.941q4.515 -0.267 9.238 -0.535"/><path class="s0" d="M88.158 168.564q-0.059 0.416 -0.149 0.653c-0.356 0.861 -0.95 1.426 -1.871 0.98 -0.594 -0.297 -0.386 -0.98 -0.059 -1.396 0.564 -0.683 1.158 -1.426 2.079 -0.238"/></g></g></svg>